<svg xmlns="http://www.w3.org/2000/svg" xmlns:xlink="http://www.w3.org/1999/xlink" width="500" zoomAndPan="magnify" viewBox="0 0 375 374.999991" height="500" preserveAspectRatio="xMidYMid meet" version="1.0"><defs><g/><clipPath id="1ed52b5b32"><path d="M 261 189 L 273.519531 189 L 273.519531 202 L 261 202 Z M 261 189 " clip-rule="nonzero"/></clipPath><clipPath id="190e5af655"><path d="M 242 129.796875 L 254 129.796875 L 254 143 L 242 143 Z M 242 129.796875 " clip-rule="nonzero"/></clipPath><clipPath id="d09adafc7c"><path d="M 101.769531 189 L 114 189 L 114 202 L 101.769531 202 Z M 101.769531 189 " clip-rule="nonzero"/></clipPath><clipPath id="40d0a7186c"><path d="M 121 129.796875 L 133 129.796875 L 133 143 L 121 143 Z M 121 129.796875 " clip-rule="nonzero"/></clipPath><clipPath id="8bea46133b"><path d="M 129 158.707031 L 246 158.707031 L 246 235.207031 L 129 235.207031 Z M 129 158.707031 " clip-rule="nonzero"/></clipPath><clipPath id="ccb3264acd"><path d="M 140.777344 141.003906 L 155.777344 141.003906 L 155.777344 155.253906 L 140.777344 155.253906 Z M 140.777344 141.003906 " clip-rule="nonzero"/></clipPath><clipPath id="18fe83a80c"><path d="M 219.21875 141.003906 L 234.21875 141.003906 L 234.21875 155.253906 L 219.21875 155.253906 Z M 219.21875 141.003906 " clip-rule="nonzero"/></clipPath><clipPath id="add62f8744"><path d="M 171.019531 93.089844 L 204.019531 93.089844 L 204.019531 150.839844 L 171.019531 150.839844 Z M 171.019531 93.089844 " clip-rule="nonzero"/></clipPath></defs><rect x="-37.5" width="450" fill="#ffffff" y="-37.499999" height="449.999989" fill-opacity="1"/><rect x="-37.5" width="450" fill="#f7f4f2" y="-37.499999" height="449.999989" fill-opacity="1"/><g fill="#0d0149" fill-opacity="1"><g transform="translate(58.356473, 189.896681)"><g><path d="M 20.140625 -3.5 C 20.066406 -3.800781 20.191406 -3.988281 20.515625 -4.0625 L 23.125 -4.515625 C 23.3125 -4.546875 23.429688 -4.53125 23.484375 -4.46875 C 23.546875 -4.414062 23.601562 -4.3125 23.65625 -4.15625 L 25.671875 2.859375 C 25.703125 3.046875 25.679688 3.164062 25.609375 3.21875 C 25.546875 3.269531 25.445312 3.316406 25.3125 3.359375 L 22.796875 4.109375 C 22.617188 4.128906 22.492188 4.117188 22.421875 4.078125 C 22.347656 4.035156 22.289062 3.925781 22.25 3.75 L 21.6875 1.28125 L 7.265625 8.421875 L 26.03125 7.796875 C 26.25 7.773438 26.390625 7.867188 26.453125 8.078125 L 27.15625 10.34375 C 27.1875 10.5625 27.101562 10.71875 26.90625 10.8125 L 9.78125 19.203125 L 25.890625 18.546875 L 25.390625 16.171875 C 25.359375 16.054688 25.359375 15.96875 25.390625 15.90625 C 25.429688 15.84375 25.523438 15.785156 25.671875 15.734375 L 28.171875 15.21875 C 28.453125 15.164062 28.640625 15.28125 28.734375 15.5625 L 30.171875 22.4375 C 30.210938 22.664062 30.082031 22.816406 29.78125 22.890625 L 27.3125 23.3125 C 27.15625 23.332031 27.035156 23.320312 26.953125 23.28125 C 26.878906 23.238281 26.816406 23.128906 26.765625 22.953125 L 26.46875 21.46875 L 5.515625 21.46875 C 5.316406 21.488281 5.179688 21.394531 5.109375 21.1875 L 4.40625 18.828125 C 4.375 18.585938 4.460938 18.421875 4.671875 18.328125 L 20.046875 10.625 L 2.984375 10.984375 C 2.785156 10.992188 2.648438 10.890625 2.578125 10.671875 L 1.828125 8.15625 C 1.796875 7.976562 1.890625 7.820312 2.109375 7.6875 L 20.609375 -2.109375 Z M 20.140625 -3.5 "/></g></g></g><g fill="#0d0149" fill-opacity="1"><g transform="translate(66.524143, 220.80568)"><g><path d="M 8.1875 18.296875 C 7.945312 18.359375 7.785156 18.3125 7.703125 18.15625 L 6.46875 15.453125 C 6.375 15.242188 6.445312 15.082031 6.6875 14.96875 L 7.53125 14.53125 L 1.03125 2.046875 C 0.925781 1.835938 0.984375 1.675781 1.203125 1.5625 L 3.859375 0.359375 C 3.992188 0.296875 4.117188 0.328125 4.234375 0.453125 L 4.84375 2.34375 L 20.21875 -5.25 L 19.1875 -6.96875 C 19.113281 -7.132812 19.179688 -7.269531 19.390625 -7.375 L 22.03125 -8.46875 C 22.226562 -8.539062 22.382812 -8.476562 22.5 -8.28125 L 29.90625 5.609375 C 30.03125 5.898438 29.972656 6.101562 29.734375 6.21875 L 24.4375 8.4375 C 24.226562 8.550781 24.085938 8.535156 24.015625 8.390625 L 22.9375 5.96875 C 22.882812 5.820312 22.875 5.71875 22.90625 5.65625 C 22.945312 5.601562 23.023438 5.546875 23.140625 5.484375 L 25.53125 4.21875 L 21.921875 -2.296875 L 15.390625 1 L 19.21875 7.734375 C 19.332031 7.972656 19.285156 8.148438 19.078125 8.265625 L 16.734375 9.546875 C 16.503906 9.628906 16.34375 9.582031 16.25 9.40625 L 12.703125 2.34375 L 6.28125 5.578125 L 10.25 13.09375 L 12.078125 12.140625 C 12.429688 11.984375 12.710938 12.085938 12.921875 12.453125 L 13.96875 14.796875 C 14.0625 15.023438 14.035156 15.175781 13.890625 15.25 Z M 8.1875 18.296875 "/></g></g></g><g fill="#0d0149" fill-opacity="1"><g transform="translate(76.983463, 241.897562)"><g><path d="M 0.546875 0.6875 C 0.421875 0.488281 0.484375 0.296875 0.734375 0.109375 L 2.875 -1.453125 C 3 -1.554688 3.109375 -1.597656 3.203125 -1.578125 C 3.296875 -1.554688 3.40625 -1.472656 3.53125 -1.328125 L 4.328125 -0.140625 L 24.3125 -7.09375 C 24.5 -7.15625 24.660156 -7.113281 24.796875 -6.96875 L 27 -4.171875 C 27.101562 -4.023438 27.085938 -3.851562 26.953125 -3.65625 L 14.71875 13.8125 L 15.609375 14.9375 C 15.765625 15.1875 15.71875 15.40625 15.46875 15.59375 L 13.453125 17.078125 C 13.304688 17.179688 13.1875 17.21875 13.09375 17.1875 C 13.007812 17.15625 12.914062 17.070312 12.8125 16.9375 L 8.5 11.046875 C 8.382812 10.898438 8.347656 10.785156 8.390625 10.703125 C 8.441406 10.628906 8.523438 10.550781 8.640625 10.46875 L 10.703125 9.34375 C 10.847656 9.257812 10.960938 9.226562 11.046875 9.25 C 11.140625 9.269531 11.234375 9.34375 11.328125 9.46875 L 12.4375 10.890625 L 15.015625 7.3125 L 10.515625 0.9375 L 6.078125 2.625 L 7.359375 4.046875 C 7.429688 4.148438 7.460938 4.234375 7.453125 4.296875 C 7.441406 4.367188 7.390625 4.457031 7.296875 4.5625 L 5.484375 6.171875 C 5.335938 6.253906 5.21875 6.285156 5.125 6.265625 C 5.03125 6.253906 4.929688 6.191406 4.828125 6.078125 Z M 13.09375 -0.03125 L 16.734375 4.890625 L 22.921875 -3.765625 Z M 13.09375 -0.03125 "/></g></g></g><g fill="#0d0149" fill-opacity="1"><g transform="translate(91.084473, 260.750347)"><g><path d="M 7.28125 6.578125 C 7.113281 6.703125 6.945312 6.6875 6.78125 6.53125 L 1.03125 1.0625 C 0.90625 0.9375 0.925781 0.78125 1.09375 0.59375 L 3.46875 -1.4375 C 3.601562 -1.539062 3.734375 -1.550781 3.859375 -1.46875 L 5.21875 -0.015625 L 16.859375 -12.390625 C 16.242188 -12.878906 15.820312 -13.226562 15.59375 -13.4375 C 15.375 -13.65625 15.257812 -13.816406 15.25 -13.921875 C 15.25 -14.035156 15.285156 -14.148438 15.359375 -14.265625 L 16.921875 -16.359375 C 17.117188 -16.554688 17.316406 -16.59375 17.515625 -16.46875 C 20.023438 -14.550781 22.398438 -12.539062 24.640625 -10.4375 C 27.773438 -7.488281 28.785156 -4.660156 27.671875 -1.953125 C 27.304688 -1.003906 26.726562 -0.113281 25.9375 0.71875 C 25.15625 1.550781 24.398438 2.15625 23.671875 2.53125 C 22.953125 2.90625 22.226562 3.132812 21.5 3.21875 C 20.019531 3.363281 18.5625 2.988281 17.125 2.09375 L 15.671875 9.65625 L 17.859375 11.375 C 18.097656 11.644531 18.101562 11.898438 17.875 12.140625 L 16.1875 13.953125 C 15.8125 14.359375 15.472656 14.429688 15.171875 14.171875 L 11.84375 11.1875 C 11.6875 11.050781 11.640625 10.867188 11.703125 10.640625 L 14.515625 -0.125 C 13.660156 -0.96875 12.921875 -1.742188 12.296875 -2.453125 L 7.703125 2.484375 L 9.25 3.9375 C 9.375 4.050781 9.367188 4.179688 9.234375 4.328125 Z M 22.84375 -7.609375 C 22.226562 -8.191406 21.117188 -9.085938 19.515625 -10.296875 L 14.1875 -4.546875 C 14.820312 -3.878906 15.5 -3.207031 16.21875 -2.53125 C 16.9375 -1.851562 17.578125 -1.34375 18.140625 -1 C 18.710938 -0.664062 19.28125 -0.453125 19.84375 -0.359375 C 21.050781 -0.160156 22.144531 -0.582031 23.125 -1.625 C 24.113281 -2.675781 24.570312 -3.691406 24.5 -4.671875 C 24.4375 -5.648438 23.882812 -6.628906 22.84375 -7.609375 Z M 22.84375 -7.609375 "/></g></g></g><g fill="#0d0149" fill-opacity="1"><g transform="translate(108.361801, 276.740377)"><g><path d="M 30.5625 -8.9375 C 30.757812 -8.800781 30.769531 -8.59375 30.59375 -8.3125 L 29.109375 -6.3125 C 29.003906 -6.1875 28.910156 -6.113281 28.828125 -6.09375 C 28.742188 -6.070312 28.625 -6.109375 28.46875 -6.203125 L 27.40625 -6.953125 L 10.890625 6.625 C 10.734375 6.757812 10.570312 6.785156 10.40625 6.703125 L 7.875 5.21875 C 7.707031 5.113281 7.65625 4.9375 7.71875 4.6875 L 12.71875 -15.96875 L 11.828125 -16.453125 C 11.566406 -16.609375 11.523438 -16.828125 11.703125 -17.109375 L 13.28125 -19.265625 C 13.382812 -19.410156 13.476562 -19.484375 13.5625 -19.484375 C 13.644531 -19.492188 13.769531 -19.453125 13.9375 -19.359375 L 19.875 -15.703125 C 20.050781 -15.554688 20.066406 -15.359375 19.921875 -15.109375 L 18.640625 -12.828125 C 18.523438 -12.679688 18.425781 -12.597656 18.34375 -12.578125 C 18.257812 -12.566406 18.148438 -12.609375 18.015625 -12.703125 L 16.09375 -13.953125 L 11.390625 2.65625 L 24.546875 -8.90625 L 22.828125 -9.9375 C 22.722656 -10.007812 22.664062 -10.082031 22.65625 -10.15625 C 22.644531 -10.226562 22.671875 -10.320312 22.734375 -10.4375 L 24.1875 -12.546875 C 24.363281 -12.785156 24.578125 -12.832031 24.828125 -12.6875 Z M 30.5625 -8.9375 "/></g></g></g><g fill="#0d0149" fill-opacity="1"><g transform="translate(127.909262, 288.794685)"><g><path d="M 9.765625 0.90625 C 9.910156 0.96875 9.9375 1.09375 9.84375 1.28125 L 8.609375 3.796875 C 8.523438 3.984375 8.367188 4.019531 8.140625 3.90625 L 1.625 0.65625 C 1.457031 0.582031 1.421875 0.425781 1.515625 0.1875 L 2.578125 -2.390625 C 2.671875 -2.535156 2.789062 -2.59375 2.9375 -2.5625 L 4.84375 -1.5 L 11.984375 -17.078125 L 10.046875 -18 C 9.878906 -18.070312 9.84375 -18.210938 9.9375 -18.421875 L 11.328125 -20.859375 C 11.390625 -20.960938 11.453125 -21.019531 11.515625 -21.03125 C 11.585938 -21.039062 11.6875 -21.03125 11.8125 -21 L 18.375 -17.609375 C 18.46875 -17.566406 18.515625 -17.515625 18.515625 -17.453125 C 18.523438 -17.390625 18.507812 -17.300781 18.46875 -17.1875 L 17.3125 -14.953125 C 17.1875 -14.742188 17.019531 -14.691406 16.8125 -14.796875 L 15.15625 -15.5625 L 7.84375 0 Z M 9.765625 0.90625 "/></g></g></g><g fill="#0d0149" fill-opacity="1"><g transform="translate(138.916963, 294.223774)"><g><path d="M 18.953125 6.53125 C 18.835938 6.757812 18.695312 6.847656 18.53125 6.796875 L 15.703125 5.84375 C 15.484375 5.769531 15.414062 5.601562 15.5 5.34375 L 15.75 4.4375 L 2.203125 0.65625 C 1.972656 0.582031 1.890625 0.421875 1.953125 0.171875 L 2.90625 -2.578125 C 2.945312 -2.722656 3.054688 -2.789062 3.234375 -2.78125 L 5.03125 -1.9375 L 9.984375 -18.34375 L 8.046875 -18.78125 C 7.867188 -18.832031 7.8125 -18.96875 7.875 -19.1875 L 8.890625 -21.890625 C 8.960938 -22.066406 9.113281 -22.132812 9.34375 -22.09375 L 24.546875 -18 C 24.847656 -17.882812 24.957031 -17.703125 24.875 -17.453125 L 22.875 -12.0625 C 22.800781 -11.832031 22.679688 -11.738281 22.515625 -11.78125 L 20.03125 -12.65625 C 19.894531 -12.707031 19.816406 -12.769531 19.796875 -12.84375 C 19.785156 -12.914062 19.796875 -13.015625 19.828125 -13.140625 L 20.53125 -15.75 L 13.3125 -17.59375 L 11.25 -10.5625 L 18.78125 -8.71875 C 19.03125 -8.644531 19.128906 -8.488281 19.078125 -8.25 L 18.390625 -5.6875 C 18.304688 -5.46875 18.164062 -5.382812 17.96875 -5.4375 L 10.390625 -7.671875 L 8.375 -0.78125 L 16.5625 1.46875 L 17.125 -0.515625 C 17.25 -0.878906 17.519531 -1.007812 17.9375 -0.90625 L 20.34375 -0.078125 C 20.570312 0.015625 20.660156 0.144531 20.609375 0.3125 Z M 18.953125 6.53125 "/></g></g></g><g fill="#0d0149" fill-opacity="1"><g transform="translate(161.784726, 301.484845)"><g><path d="M 3.03125 -20.203125 C 2.726562 -20.222656 2.59375 -20.398438 2.625 -20.734375 L 3.015625 -23.375 C 3.046875 -23.550781 3.09375 -23.660156 3.15625 -23.703125 C 3.226562 -23.742188 3.359375 -23.765625 3.546875 -23.765625 L 10.8125 -23.4375 C 11 -23.414062 11.101562 -23.363281 11.125 -23.28125 C 11.15625 -23.207031 11.171875 -23.097656 11.171875 -22.953125 L 11.109375 -20.34375 C 11.066406 -20.15625 11.007812 -20.035156 10.9375 -19.984375 C 10.875 -19.929688 10.753906 -19.910156 10.578125 -19.921875 L 8.0625 -20.171875 L 10.296875 -4.25 L 15.609375 -22.25 C 15.660156 -22.457031 15.796875 -22.554688 16.015625 -22.546875 L 18.390625 -22.515625 C 18.597656 -22.472656 18.71875 -22.34375 18.75 -22.125 L 21.296875 -3.234375 L 25.765625 -18.71875 L 23.359375 -18.984375 C 23.234375 -18.992188 23.148438 -19.023438 23.109375 -19.078125 C 23.066406 -19.140625 23.039062 -19.242188 23.03125 -19.390625 L 23.328125 -21.921875 C 23.367188 -22.203125 23.535156 -22.34375 23.828125 -22.34375 L 30.796875 -21.546875 C 31.035156 -21.515625 31.140625 -21.34375 31.109375 -21.03125 L 30.734375 -18.5625 C 30.710938 -18.394531 30.664062 -18.28125 30.59375 -18.21875 C 30.53125 -18.164062 30.410156 -18.140625 30.234375 -18.140625 L 28.734375 -18.34375 L 22.125 1.546875 C 22.0625 1.734375 21.925781 1.832031 21.71875 1.84375 L 19.25 1.75 C 19.019531 1.71875 18.894531 1.585938 18.875 1.359375 L 16.421875 -15.671875 L 11.359375 0.625 C 11.296875 0.820312 11.15625 0.921875 10.9375 0.921875 L 8.3125 0.828125 C 8.125 0.804688 8.003906 0.675781 7.953125 0.4375 L 4.5 -20.21875 Z M 3.03125 -20.203125 "/></g></g></g><g fill="#0d0149" fill-opacity="1"><g transform="translate(193.089155, 303.154263)"><g/></g></g><g fill="#0d0149" fill-opacity="1"><g transform="translate(203.832652, 302.59984)"><g><path d="M 0.859375 -0.21875 C 0.617188 -0.1875 0.46875 -0.320312 0.40625 -0.625 L -0.140625 -3.21875 C -0.179688 -3.375 -0.171875 -3.488281 -0.109375 -3.5625 C -0.0546875 -3.644531 0.0625 -3.710938 0.25 -3.765625 L 1.65625 -4 L 3.546875 -25.078125 C 3.566406 -25.273438 3.664062 -25.40625 3.84375 -25.46875 L 7.3125 -26.34375 C 7.5 -26.363281 7.65625 -26.269531 7.78125 -26.0625 L 18.640625 -7.734375 L 20.03125 -8.078125 C 20.320312 -8.117188 20.5 -7.984375 20.5625 -7.671875 L 21.078125 -5.234375 C 21.117188 -5.054688 21.109375 -4.9375 21.046875 -4.875 C 20.992188 -4.8125 20.878906 -4.757812 20.703125 -4.71875 L 13.5625 -3.203125 C 13.382812 -3.160156 13.269531 -3.175781 13.21875 -3.25 C 13.175781 -3.320312 13.140625 -3.429688 13.109375 -3.578125 L 12.9375 -5.90625 C 12.90625 -6.070312 12.914062 -6.191406 12.96875 -6.265625 C 13.019531 -6.335938 13.128906 -6.390625 13.296875 -6.421875 L 15.03125 -6.84375 L 12.84375 -10.65625 L 5.1875 -9.1875 L 4.890625 -4.453125 L 6.71875 -5.046875 C 6.84375 -5.066406 6.929688 -5.054688 6.984375 -5.015625 C 7.046875 -4.972656 7.101562 -4.890625 7.15625 -4.765625 L 7.875 -2.46875 C 7.882812 -2.28125 7.863281 -2.148438 7.8125 -2.078125 C 7.769531 -2.003906 7.671875 -1.945312 7.515625 -1.90625 Z M 5.359375 -11.953125 L 11.359375 -13.234375 L 6 -22.453125 Z M 5.359375 -11.953125 "/></g></g></g><g fill="#0d0149" fill-opacity="1"><g transform="translate(226.819415, 297.513188)"><g><path d="M 7.859375 -29.3125 C 8.242188 -29.476562 8.523438 -29.375 8.703125 -29 L 11.15625 -22.578125 C 11.257812 -22.328125 11.207031 -22.15625 11 -22.0625 L 8.59375 -21.015625 C 8.40625 -20.941406 8.253906 -21.007812 8.140625 -21.21875 L 6.296875 -24.828125 C 4.984375 -24.628906 3.828125 -24.320312 2.828125 -23.90625 C 1.828125 -23.488281 1.046875 -22.992188 0.484375 -22.421875 C -0.078125 -21.847656 -0.445312 -21.132812 -0.625 -20.28125 C -0.957031 -18.644531 -0.503906 -16.332031 0.734375 -13.34375 C 2.597656 -8.800781 4.816406 -6.539062 7.390625 -6.5625 C 8.210938 -6.5625 9.140625 -6.773438 10.171875 -7.203125 C 11.203125 -7.628906 12.21875 -8.265625 13.21875 -9.109375 L 12.328125 -11.015625 C 12.273438 -11.203125 12.347656 -11.363281 12.546875 -11.5 L 14.796875 -12.890625 C 14.960938 -12.960938 15.109375 -12.890625 15.234375 -12.671875 L 18.171875 -7.25 C 18.234375 -7.09375 18.160156 -6.960938 17.953125 -6.859375 L 15.515625 -5.609375 C 15.128906 -5.453125 14.847656 -5.554688 14.671875 -5.921875 L 14.390625 -6.5 C 13.347656 -5.238281 12.078125 -4.296875 10.578125 -3.671875 C 9.078125 -3.046875 7.707031 -2.78125 6.46875 -2.875 C 5.238281 -2.96875 4.066406 -3.367188 2.953125 -4.078125 C 0.734375 -5.535156 -1.175781 -8.203125 -2.78125 -12.078125 C -4.363281 -15.921875 -4.765625 -19.09375 -3.984375 -21.59375 C -3.273438 -23.882812 -1.601562 -25.570312 1.03125 -26.65625 C 2.675781 -27.34375 4.140625 -27.734375 5.421875 -27.828125 Z M 7.859375 -29.3125 "/></g></g></g><g fill="#0d0149" fill-opacity="1"><g transform="translate(248.507394, 288.353638)"><g><path d="M 0.71875 -0.5 C 0.519531 -0.382812 0.335938 -0.460938 0.171875 -0.734375 L -1.265625 -2.953125 C -1.359375 -3.085938 -1.394531 -3.203125 -1.375 -3.296875 C -1.351562 -3.390625 -1.265625 -3.488281 -1.109375 -3.59375 L 0.125 -4.328125 L -5.609375 -24.6875 C -5.660156 -24.882812 -5.609375 -25.046875 -5.453125 -25.171875 L -2.53125 -27.21875 C -2.363281 -27.3125 -2.1875 -27.28125 -2 -27.125 L 14.671875 -13.84375 L 15.859375 -14.671875 C 16.117188 -14.804688 16.332031 -14.742188 16.5 -14.484375 L 17.859375 -12.390625 C 17.953125 -12.234375 17.984375 -12.113281 17.953125 -12.03125 C 17.921875 -11.957031 17.828125 -11.867188 17.671875 -11.765625 L 11.546875 -7.8125 C 11.390625 -7.707031 11.273438 -7.679688 11.203125 -7.734375 C 11.128906 -7.785156 11.050781 -7.875 10.96875 -8 L 9.984375 -10.109375 C 9.910156 -10.273438 9.882812 -10.394531 9.90625 -10.46875 C 9.925781 -10.550781 10.003906 -10.640625 10.140625 -10.734375 L 11.625 -11.765625 L 8.21875 -14.53125 L 1.5625 -10.4375 L 2.984375 -5.921875 L 4.484375 -7.109375 C 4.585938 -7.171875 4.675781 -7.191406 4.75 -7.171875 C 4.820312 -7.148438 4.898438 -7.09375 4.984375 -7 L 6.484375 -5.09375 C 6.566406 -4.9375 6.59375 -4.8125 6.5625 -4.71875 C 6.539062 -4.632812 6.472656 -4.546875 6.359375 -4.453125 Z M 0.765625 -13.09375 L 5.90625 -16.40625 L -2.375 -23.109375 Z M 0.765625 -13.09375 "/></g></g></g><g fill="#0d0149" fill-opacity="1"><g transform="translate(268.181419, 275.423131)"><g><path d="M -11.34375 -17.703125 C -11.789062 -17.234375 -12.289062 -16.679688 -12.84375 -16.046875 C -12.925781 -15.960938 -12.992188 -15.929688 -13.046875 -15.953125 C -13.109375 -15.972656 -13.1875 -16.019531 -13.28125 -16.09375 L -15.453125 -18.09375 C -15.523438 -18.1875 -15.550781 -18.265625 -15.53125 -18.328125 C -15.519531 -18.398438 -15.476562 -18.488281 -15.40625 -18.59375 C -14.664062 -19.320312 -14.019531 -19.957031 -13.46875 -20.5 C -12.914062 -21.039062 -12.4375 -21.507812 -12.03125 -21.90625 C -11.625 -22.3125 -11.273438 -22.648438 -10.984375 -22.921875 C -10.691406 -23.203125 -10.4375 -23.445312 -10.21875 -23.65625 C -10.007812 -23.875 -9.820312 -24.0625 -9.65625 -24.21875 L -9.171875 -24.671875 C -6.898438 -26.816406 -4.648438 -27.816406 -2.421875 -27.671875 C 0.148438 -27.484375 2.941406 -25.796875 5.953125 -22.609375 C 8.796875 -19.585938 10.332031 -16.660156 10.5625 -13.828125 C 10.75 -11.148438 9.757812 -8.789062 7.59375 -6.75 C 5.320312 -4.601562 3.15625 -2.738281 1.09375 -1.15625 C 0.957031 -1.039062 0.800781 -1.070312 0.625 -1.25 L -1.140625 -3.40625 C -1.242188 -3.539062 -1.25 -3.671875 -1.15625 -3.796875 L 0.171875 -4.875 Z M 2.984375 -7.25 C 3.660156 -7.800781 4.140625 -8.210938 4.421875 -8.484375 L 5.171875 -9.1875 C 6.722656 -10.644531 7.351562 -12.253906 7.0625 -14.015625 C 6.78125 -15.785156 5.632812 -17.738281 3.625 -19.875 C 0.28125 -23.425781 -2.539062 -24.710938 -4.84375 -23.734375 C -5.582031 -23.429688 -6.175781 -23.070312 -6.625 -22.65625 C -7.382812 -21.9375 -8.179688 -21.140625 -9.015625 -20.265625 Z M 2.984375 -7.25 "/></g></g></g><g fill="#0d0149" fill-opacity="1"><g transform="translate(285.192853, 259.148083)"><g><path d="M 12.375 -15.765625 C 12.550781 -15.585938 12.585938 -15.425781 12.484375 -15.28125 L 10.65625 -12.921875 C 10.519531 -12.734375 10.34375 -12.722656 10.125 -12.890625 L 9.34375 -13.4375 L 1.328125 -1.859375 C 1.179688 -1.671875 1.007812 -1.644531 0.8125 -1.78125 L -1.484375 -3.59375 C -1.609375 -3.675781 -1.632812 -3.800781 -1.5625 -3.96875 L -0.1875 -5.390625 L -14.078125 -15.4375 L -15.109375 -13.75 C -15.222656 -13.59375 -15.367188 -13.582031 -15.546875 -13.71875 L -17.78125 -15.5625 C -17.914062 -15.695312 -17.925781 -15.859375 -17.8125 -16.046875 L -8.96875 -29.078125 C -8.78125 -29.316406 -8.582031 -29.359375 -8.375 -29.203125 L -3.90625 -25.5625 C -3.707031 -25.414062 -3.660156 -25.273438 -3.765625 -25.140625 L -5.40625 -23.078125 C -5.5 -22.960938 -5.582031 -22.90625 -5.65625 -22.90625 C -5.726562 -22.914062 -5.820312 -22.957031 -5.9375 -23.03125 L -8.171875 -24.546875 L -12.25 -18.34375 L -6.28125 -14.078125 L -2.09375 -20.59375 C -1.9375 -20.800781 -1.757812 -20.847656 -1.5625 -20.734375 L 0.640625 -19.25 C 0.828125 -19.082031 0.863281 -18.921875 0.75 -18.765625 L -3.859375 -12.328125 L 2 -8.171875 L 6.796875 -15.1875 L 5.109375 -16.359375 C 4.804688 -16.597656 4.773438 -16.894531 5.015625 -17.25 L 6.59375 -19.265625 C 6.738281 -19.441406 6.878906 -19.476562 7.015625 -19.375 Z M 12.375 -15.765625 "/></g></g></g><g fill="#0d0149" fill-opacity="1"><g transform="translate(299.524775, 239.913007)"><g><path d="M 8.703125 -19.71875 C 8.609375 -19.507812 8.460938 -19.4375 8.265625 -19.5 L 5.90625 -20.6875 C 5.71875 -20.78125 5.65625 -20.894531 5.71875 -21.03125 L 6.15625 -22.015625 L -10.4375 -28.359375 L 6.625 -15.28125 C 6.789062 -15.164062 6.832031 -15.007812 6.75 -14.8125 L 5.4375 -11.75 C 5.363281 -11.570312 5.210938 -11.507812 4.984375 -11.5625 L -15.578125 -14.984375 L -0.3125 -7.6875 L 0.21875 -9.046875 C 0.269531 -9.171875 0.394531 -9.207031 0.59375 -9.15625 L 3.28125 -8.25 C 3.457031 -8.144531 3.5 -7.988281 3.40625 -7.78125 L 0.734375 -1.5 C 0.671875 -1.332031 0.519531 -1.296875 0.28125 -1.390625 L -2.34375 -2.765625 C -2.488281 -2.847656 -2.546875 -2.96875 -2.515625 -3.125 L -1.5 -4.9375 L -16.6875 -12.6875 L -17.296875 -10.828125 C -17.378906 -10.640625 -17.53125 -10.585938 -17.75 -10.671875 L -20.484375 -11.734375 C -20.660156 -11.835938 -20.710938 -12 -20.640625 -12.21875 L -18.328125 -18.265625 C -18.203125 -18.546875 -17.988281 -18.660156 -17.6875 -18.609375 L 2.59375 -15.0625 L -13.5 -27.6875 C -13.75 -27.851562 -13.804688 -28.085938 -13.671875 -28.390625 L -11.109375 -34.03125 C -11.046875 -34.125 -10.984375 -34.191406 -10.921875 -34.234375 C -10.867188 -34.273438 -10.785156 -34.269531 -10.671875 -34.21875 L -7.765625 -33.125 C -7.660156 -33.0625 -7.585938 -33.003906 -7.546875 -32.953125 C -7.515625 -32.910156 -7.523438 -32.835938 -7.578125 -32.734375 L -8.375 -30.96875 L 7.484375 -25.109375 L 8.28125 -27.03125 C 8.375 -27.15625 8.5 -27.195312 8.65625 -27.15625 L 10.96875 -25.8125 C 11.175781 -25.675781 11.25 -25.539062 11.1875 -25.40625 Z M 8.703125 -19.71875 "/></g></g></g><g fill="#0d0149" fill-opacity="1"><g transform="translate(311.830762, 210.513386)"><g><path d="M -0.28125 -15.53125 C -0.238281 -15.71875 -0.101562 -15.785156 0.125 -15.734375 L 2.78125 -14.921875 C 2.90625 -14.890625 2.976562 -14.835938 3 -14.765625 C 3.03125 -14.703125 3.039062 -14.609375 3.03125 -14.484375 L 1.125 -6.328125 C 1.09375 -6.210938 1.046875 -6.144531 0.984375 -6.125 C 0.929688 -6.101562 0.84375 -6.101562 0.71875 -6.125 L -1.890625 -6.765625 C -2.097656 -6.835938 -2.179688 -6.976562 -2.140625 -7.1875 L -1.59375 -9.609375 L -6.765625 -10.71875 L -19.671875 -6.484375 L -19.859375 -5.15625 C -19.910156 -4.851562 -20.101562 -4.734375 -20.4375 -4.796875 L -23.09375 -5.1875 C -23.269531 -5.21875 -23.375 -5.273438 -23.40625 -5.359375 C -23.445312 -5.441406 -23.445312 -5.570312 -23.40625 -5.75 L -21.875 -13.203125 C -21.84375 -13.378906 -21.78125 -13.472656 -21.6875 -13.484375 C -21.601562 -13.503906 -21.488281 -13.5 -21.34375 -13.46875 L -18.8125 -12.8125 C -18.65625 -12.757812 -18.554688 -12.691406 -18.515625 -12.609375 C -18.472656 -12.535156 -18.460938 -12.414062 -18.484375 -12.25 L -18.90625 -10.5625 L -8.71875 -13.265625 L -16.921875 -19.578125 L -17.28125 -17.609375 C -17.300781 -17.484375 -17.34375 -17.398438 -17.40625 -17.359375 C -17.46875 -17.328125 -17.566406 -17.316406 -17.703125 -17.328125 L -20.328125 -17.640625 C -20.640625 -17.722656 -20.765625 -17.90625 -20.703125 -18.1875 L -19.375 -25.25 C -19.300781 -25.46875 -19.109375 -25.546875 -18.796875 -25.484375 L -16.328125 -24.796875 C -16.171875 -24.765625 -16.0625 -24.707031 -16 -24.625 C -15.945312 -24.550781 -15.941406 -24.425781 -15.984375 -24.25 L -16.25 -22.921875 L -6.0625 -14.140625 L -0.859375 -12.96875 Z M -0.28125 -15.53125 "/></g></g></g><path fill="#f9971d" d="M 187.5 249.527344 C 188.496094 251.441406 189.570312 253.335938 190.726562 255.207031 C 193.742188 260.367188 204.105469 263.957031 214.445312 261.546875 C 212.777344 260.082031 211.179688 258.574219 209.652344 257.019531 C 205.347656 252.808594 197.15625 250.6875 187.496094 249.527344 Z M 187.5 249.527344 " fill-opacity="1" fill-rule="nonzero"/><path fill="#f9971d" d="M 200.796875 249.875 C 201.777344 248.007812 202.664062 246.128906 203.453125 244.234375 C 205.753906 239.070312 211.335938 234.867188 217.453125 232.179688 C 217.394531 234.15625 217.25 236.148438 217.019531 238.152344 C 216.550781 243.582031 210.117188 249.28125 200.800781 249.871094 Z M 200.796875 249.875 " fill-opacity="1" fill-rule="nonzero"/><path fill="#f9971d" d="M 204.996094 249.464844 C 206.265625 251.007812 207.597656 252.519531 208.992188 253.996094 C 212.6875 258.097656 222.207031 259.261719 230.777344 255.105469 C 229.007812 254.070312 227.289062 252.984375 225.621094 251.847656 C 220.96875 248.796875 213.335938 248.453125 204.996094 249.464844 Z M 204.996094 249.464844 " fill-opacity="1" fill-rule="nonzero"/><path fill="#f9971d" d="M 216.375 247.007812 C 216.816406 245.097656 217.175781 243.191406 217.453125 241.285156 C 218.339844 236.070312 222.421875 231.070312 227.515625 227.4375 C 227.839844 229.28125 228.097656 231.148438 228.28125 233.042969 C 228.914062 238.15625 224.285156 244.589844 216.375 247.007812 Z M 216.375 247.007812 " fill-opacity="1" fill-rule="nonzero"/><path fill="#f9971d" d="M 220.765625 245.480469 C 222.210938 246.628906 223.707031 247.738281 225.25 248.808594 C 229.371094 251.804688 237.890625 250.980469 244.722656 245.617188 C 242.925781 244.992188 241.167969 244.316406 239.441406 243.585938 C 234.660156 241.660156 227.738281 242.816406 220.761719 245.480469 Z M 220.765625 245.480469 " fill-opacity="1" fill-rule="nonzero"/><path fill="#f9971d" d="M 230.195312 240.925781 C 230.179688 239.089844 230.097656 237.269531 229.949219 235.464844 C 229.648438 230.507812 232.351562 225.097656 236.40625 220.792969 C 237.039062 222.433594 237.617188 224.109375 238.140625 225.824219 C 239.671875 230.421875 236.695312 237.160156 230.199219 240.925781 Z M 230.195312 240.925781 " fill-opacity="1" fill-rule="nonzero"/><path fill="#f9971d" d="M 234.539062 238.15625 C 236.074219 238.910156 237.644531 239.617188 239.25 240.285156 C 243.558594 242.183594 250.957031 239.800781 256.117188 233.691406 C 254.367188 233.449219 252.636719 233.15625 250.925781 232.808594 C 246.214844 231.9375 240.152344 234.304688 234.539062 238.15625 Z M 234.539062 238.15625 " fill-opacity="1" fill-rule="nonzero"/><path fill="#f9971d" d="M 242.023438 232.136719 C 241.632812 230.460938 241.191406 228.816406 240.699219 227.195312 C 239.433594 222.722656 240.878906 217.226562 243.886719 212.5 C 244.757812 213.898438 245.585938 215.335938 246.375 216.8125 C 248.601562 220.765625 247.113281 227.445312 242.023438 232.136719 Z M 242.023438 232.136719 " fill-opacity="1" fill-rule="nonzero"/><path fill="#f9971d" d="M 246.058594 228.070312 C 247.601562 228.445312 249.164062 228.777344 250.746094 229.066406 C 255.03125 229.933594 261.207031 226.375 264.777344 219.933594 C 263.125 220.03125 261.492188 220.078125 259.871094 220.082031 C 255.410156 220.15625 250.316406 223.457031 246.058594 228.070312 Z M 246.058594 228.070312 " fill-opacity="1" fill-rule="nonzero"/><path fill="#f9971d" d="M 251.625 221.148438 C 250.945312 219.703125 250.226562 218.292969 249.476562 216.910156 C 247.464844 213.085938 247.789062 207.765625 249.761719 202.847656 C 250.800781 203.980469 251.8125 205.148438 252.792969 206.355469 C 255.527344 209.585938 255.347656 215.921875 251.632812 221.148438 Z M 251.625 221.148438 " fill-opacity="1" fill-rule="nonzero"/><path fill="#f9971d" d="M 255.050781 215.804688 C 256.523438 215.835938 258.007812 215.824219 259.5 215.777344 C 263.554688 215.710938 268.449219 211.359375 270.527344 204.917969 C 269.046875 205.304688 267.566406 205.648438 266.085938 205.949219 C 262.035156 206.839844 257.992188 210.792969 255.050781 215.804688 Z M 255.050781 215.804688 " fill-opacity="1" fill-rule="nonzero"/><path fill="#f9971d" d="M 258.773438 208.460938 C 257.878906 207.285156 256.960938 206.144531 256.015625 205.039062 C 253.472656 201.953125 252.816406 197.015625 253.789062 192.121094 C 254.929688 192.972656 256.058594 193.859375 257.164062 194.785156 C 260.21875 197.246094 261.171875 203.027344 258.773438 208.460938 Z M 258.773438 208.460938 " fill-opacity="1" fill-rule="nonzero"/><g clip-path="url(#1ed52b5b32)"><path fill="#f9971d" d="M 261.253906 201.941406 C 262.589844 201.675781 263.929688 201.371094 265.273438 201.035156 C 268.929688 200.171875 272.511719 195.359375 273.222656 189.199219 C 271.949219 189.816406 270.671875 190.402344 269.386719 190.949219 C 265.882812 192.5 262.941406 196.847656 261.253906 201.9375 Z M 261.253906 201.941406 " fill-opacity="1" fill-rule="nonzero"/></g><path fill="#f9971d" d="M 263.226562 194.601562 C 262.199219 193.714844 261.152344 192.859375 260.09375 192.035156 C 257.21875 189.730469 255.730469 185.335938 255.746094 180.640625 C 256.933594 181.21875 258.113281 181.832031 259.28125 182.476562 C 262.492188 184.175781 264.382812 189.246094 263.226562 194.601562 Z M 263.226562 194.601562 " fill-opacity="1" fill-rule="nonzero"/><path fill="#f9971d" d="M 264.40625 187.0625 C 265.550781 186.554688 266.695312 186.015625 267.832031 185.445312 C 270.941406 183.953125 273.230469 178.976562 272.710938 173.328125 C 271.683594 174.117188 270.644531 174.878906 269.589844 175.613281 C 266.734375 177.664062 264.917969 182.15625 264.398438 187.0625 Z M 264.40625 187.0625 " fill-opacity="1" fill-rule="nonzero"/><path fill="#f9971d" d="M 264.757812 180.070312 C 263.664062 179.472656 262.5625 178.898438 261.453125 178.351562 C 258.433594 176.816406 256.265625 173.078125 255.390625 168.734375 C 256.570312 169.054688 257.746094 169.40625 258.917969 169.789062 C 262.125 170.773438 264.769531 175.023438 264.757812 180.066406 Z M 264.757812 180.070312 " fill-opacity="1" fill-rule="nonzero"/><path fill="#f9971d" d="M 264.242188 171.742188 C 265.15625 171.054688 266.0625 170.347656 266.957031 169.613281 C 269.414062 167.65625 270.441406 162.789062 268.859375 157.808594 C 268.101562 158.710938 267.332031 159.589844 266.542969 160.449219 C 264.410156 162.828125 263.699219 167.234375 264.242188 171.746094 Z M 264.242188 171.742188 " fill-opacity="1" fill-rule="nonzero"/><path fill="#f9971d" d="M 263.128906 165.386719 C 262.035156 165.054688 260.941406 164.746094 259.84375 164.460938 C 256.847656 163.648438 254.148438 160.621094 252.476562 156.761719 C 253.597656 156.855469 254.71875 156.96875 255.847656 157.113281 C 258.914062 157.453125 262.125 160.835938 263.128906 165.386719 Z M 263.128906 165.386719 " fill-opacity="1" fill-rule="nonzero"/><path fill="#f9971d" d="M 260.488281 156.566406 C 261.140625 155.765625 261.78125 154.953125 262.40625 154.121094 C 264.136719 151.878906 263.992188 147.339844 261.527344 143.144531 C 261.050781 144.097656 260.558594 145.03125 260.046875 145.953125 C 258.675781 148.492188 259.015625 152.621094 260.488281 156.5625 Z M 260.488281 156.566406 " fill-opacity="1" fill-rule="nonzero"/><path fill="#f9971d" d="M 258.109375 151.050781 C 257.070312 150.957031 256.039062 150.882812 255.007812 150.828125 C 252.175781 150.652344 249.105469 148.363281 246.742188 145.074219 C 247.765625 144.972656 248.792969 144.890625 249.824219 144.828125 C 252.636719 144.621094 256.226562 147.132812 258.109375 151.050781 Z M 258.109375 151.050781 " fill-opacity="1" fill-rule="nonzero"/><g clip-path="url(#190e5af655)"><path fill="#f9971d" d="M 253.382812 142.746094 C 252.214844 141.742188 251.015625 140.773438 249.78125 139.839844 C 246.445312 137.292969 243.503906 133.488281 242.140625 129.804688 C 243.609375 130.601562 245.042969 131.433594 246.445312 132.3125 C 250.328125 134.695312 253.175781 139.125 253.375 142.746094 Z M 253.382812 142.746094 " fill-opacity="1" fill-rule="nonzero"/></g><path fill="#f9971d" d="M 187.5 249.527344 C 186.507812 251.441406 185.429688 253.335938 184.273438 255.207031 C 181.261719 260.367188 170.894531 263.957031 160.558594 261.546875 C 162.222656 260.082031 163.820312 258.574219 165.347656 257.019531 C 169.652344 252.808594 177.84375 250.6875 187.503906 249.527344 Z M 187.5 249.527344 " fill-opacity="1" fill-rule="nonzero"/><path fill="#f9971d" d="M 174.203125 249.875 C 173.222656 248.015625 172.339844 246.136719 171.554688 244.238281 C 169.25 239.074219 163.671875 234.871094 157.554688 232.183594 C 157.609375 234.160156 157.753906 236.152344 157.984375 238.15625 C 158.453125 243.589844 164.890625 249.289062 174.207031 249.875 Z M 174.203125 249.875 " fill-opacity="1" fill-rule="nonzero"/><path fill="#f9971d" d="M 170.003906 249.464844 C 168.738281 251.007812 167.40625 252.519531 166.007812 253.996094 C 162.316406 258.097656 152.796875 259.261719 144.226562 255.105469 C 145.996094 254.070312 147.714844 252.984375 149.382812 251.847656 C 154.03125 248.796875 161.667969 248.453125 170.003906 249.464844 Z M 170.003906 249.464844 " fill-opacity="1" fill-rule="nonzero"/><path fill="#f9971d" d="M 158.625 247.007812 C 158.1875 245.097656 157.828125 243.191406 157.550781 241.285156 C 156.660156 236.070312 152.578125 231.070312 147.484375 227.4375 C 147.160156 229.28125 146.90625 231.148438 146.71875 233.042969 C 146.089844 238.15625 150.71875 244.589844 158.628906 247.007812 Z M 158.625 247.007812 " fill-opacity="1" fill-rule="nonzero"/><path fill="#f9971d" d="M 154.238281 245.480469 C 152.789062 246.628906 151.296875 247.738281 149.753906 248.808594 C 145.632812 251.804688 137.113281 250.980469 130.277344 245.617188 C 132.074219 244.992188 133.835938 244.316406 135.5625 243.585938 C 140.34375 241.660156 147.261719 242.816406 154.242188 245.480469 Z M 154.238281 245.480469 " fill-opacity="1" fill-rule="nonzero"/><path fill="#f9971d" d="M 144.804688 240.925781 C 144.824219 239.089844 144.90625 237.269531 145.050781 235.464844 C 145.355469 230.507812 142.652344 225.097656 138.597656 220.792969 C 137.964844 222.433594 137.386719 224.109375 136.859375 225.824219 C 135.332031 230.421875 138.308594 237.160156 144.800781 240.925781 Z M 144.804688 240.925781 " fill-opacity="1" fill-rule="nonzero"/><path fill="#f9971d" d="M 140.460938 238.15625 C 138.925781 238.910156 137.355469 239.617188 135.753906 240.285156 C 131.441406 242.183594 124.050781 239.800781 118.886719 233.691406 C 120.640625 233.449219 122.367188 233.15625 124.078125 232.808594 C 128.789062 231.9375 134.855469 234.304688 140.464844 238.15625 Z M 140.460938 238.15625 " fill-opacity="1" fill-rule="nonzero"/><path fill="#f9971d" d="M 132.980469 232.136719 C 133.371094 230.460938 133.8125 228.816406 134.304688 227.195312 C 135.570312 222.722656 134.125 217.226562 131.121094 212.5 C 130.25 213.898438 129.417969 215.335938 128.628906 216.8125 C 126.402344 220.765625 127.894531 227.445312 132.980469 232.136719 Z M 132.980469 232.136719 " fill-opacity="1" fill-rule="nonzero"/><path fill="#f9971d" d="M 128.945312 228.070312 C 127.402344 228.445312 125.839844 228.777344 124.257812 229.066406 C 119.972656 229.933594 113.796875 226.375 110.226562 219.933594 C 111.878906 220.03125 113.511719 220.078125 115.128906 220.082031 C 119.59375 220.15625 124.6875 223.457031 128.945312 228.070312 Z M 128.945312 228.070312 " fill-opacity="1" fill-rule="nonzero"/><path fill="#f9971d" d="M 123.375 221.148438 C 124.058594 219.703125 124.777344 218.292969 125.53125 216.910156 C 127.542969 213.085938 127.21875 207.765625 125.246094 202.847656 C 124.207031 203.980469 123.195312 205.148438 122.214844 206.355469 C 119.480469 209.585938 119.660156 215.921875 123.375 221.148438 Z M 123.375 221.148438 " fill-opacity="1" fill-rule="nonzero"/><path fill="#f9971d" d="M 119.953125 215.804688 C 118.480469 215.835938 116.996094 215.824219 115.503906 215.777344 C 111.449219 215.710938 106.550781 211.355469 104.472656 204.917969 C 105.957031 205.304688 107.4375 205.648438 108.914062 205.949219 C 112.964844 206.839844 117.011719 210.792969 119.953125 215.804688 Z M 119.953125 215.804688 " fill-opacity="1" fill-rule="nonzero"/><path fill="#f9971d" d="M 116.230469 208.460938 C 117.121094 207.285156 118.042969 206.144531 118.988281 205.039062 C 121.53125 201.953125 122.183594 197.015625 121.214844 192.121094 C 120.070312 192.972656 118.945312 193.859375 117.835938 194.785156 C 114.78125 197.246094 113.832031 203.027344 116.230469 208.460938 Z M 116.230469 208.460938 " fill-opacity="1" fill-rule="nonzero"/><g clip-path="url(#d09adafc7c)"><path fill="#f9971d" d="M 113.746094 201.941406 C 112.410156 201.675781 111.070312 201.371094 109.730469 201.035156 C 106.070312 200.171875 102.488281 195.359375 101.78125 189.199219 C 103.050781 189.816406 104.332031 190.402344 105.613281 190.949219 C 109.121094 192.5 112.0625 196.847656 113.746094 201.9375 Z M 113.746094 201.941406 " fill-opacity="1" fill-rule="nonzero"/></g><path fill="#f9971d" d="M 111.777344 194.601562 C 112.804688 193.714844 113.847656 192.859375 114.90625 192.035156 C 117.78125 189.730469 119.269531 185.335938 119.253906 180.640625 C 118.066406 181.21875 116.886719 181.832031 115.71875 182.476562 C 112.507812 184.175781 110.617188 189.246094 111.773438 194.601562 Z M 111.777344 194.601562 " fill-opacity="1" fill-rule="nonzero"/><path fill="#f9971d" d="M 110.601562 187.0625 C 109.453125 186.554688 108.3125 186.015625 107.175781 185.445312 C 104.058594 183.953125 101.773438 178.976562 102.289062 173.328125 C 103.316406 174.117188 104.355469 174.878906 105.410156 175.613281 C 108.261719 177.664062 110.078125 182.15625 110.601562 187.0625 Z M 110.601562 187.0625 " fill-opacity="1" fill-rule="nonzero"/><path fill="#f9971d" d="M 110.246094 180.070312 C 111.339844 179.472656 112.441406 178.898438 113.546875 178.351562 C 116.570312 176.816406 118.738281 173.078125 119.609375 168.734375 C 118.433594 169.054688 117.257812 169.40625 116.082031 169.789062 C 112.875 170.773438 110.230469 175.023438 110.246094 180.066406 Z M 110.246094 180.070312 " fill-opacity="1" fill-rule="nonzero"/><path fill="#f9971d" d="M 110.765625 171.742188 C 109.851562 171.054688 108.945312 170.347656 108.050781 169.609375 C 105.59375 167.652344 104.5625 162.785156 106.144531 157.808594 C 106.902344 158.710938 107.675781 159.589844 108.464844 160.445312 C 110.601562 162.832031 111.304688 167.234375 110.765625 171.742188 Z M 110.765625 171.742188 " fill-opacity="1" fill-rule="nonzero"/><path fill="#f9971d" d="M 111.871094 165.386719 C 112.964844 165.054688 114.058594 164.746094 115.15625 164.460938 C 118.15625 163.648438 120.851562 160.621094 122.523438 156.761719 C 121.402344 156.855469 120.28125 156.96875 119.15625 157.113281 C 116.089844 157.453125 112.878906 160.835938 111.871094 165.386719 Z M 111.871094 165.386719 " fill-opacity="1" fill-rule="nonzero"/><path fill="#f9971d" d="M 114.515625 156.566406 C 113.863281 155.765625 113.222656 154.953125 112.59375 154.121094 C 110.867188 151.878906 111.007812 147.339844 113.472656 143.144531 C 113.949219 144.097656 114.445312 145.03125 114.957031 145.953125 C 116.328125 148.492188 115.984375 152.621094 114.515625 156.5625 Z M 114.515625 156.566406 " fill-opacity="1" fill-rule="nonzero"/><path fill="#f9971d" d="M 116.890625 151.050781 C 117.925781 150.957031 118.960938 150.882812 119.992188 150.828125 C 122.820312 150.652344 125.890625 148.363281 128.257812 145.074219 C 127.234375 144.972656 126.207031 144.890625 125.171875 144.828125 C 122.363281 144.621094 118.773438 147.132812 116.886719 151.050781 Z M 116.890625 151.050781 " fill-opacity="1" fill-rule="nonzero"/><g clip-path="url(#40d0a7186c)"><path fill="#f9971d" d="M 121.617188 142.746094 C 122.785156 141.742188 123.988281 140.773438 125.222656 139.839844 C 128.558594 137.292969 131.5 133.488281 132.859375 129.804688 C 131.394531 130.601562 129.957031 131.433594 128.558594 132.3125 C 124.675781 134.695312 121.828125 139.125 121.628906 142.746094 Z M 121.617188 142.746094 " fill-opacity="1" fill-rule="nonzero"/></g><g clip-path="url(#8bea46133b)"><path fill="#0d0149" d="M 187.5 188.402344 L 205.707031 181.40625 L 187.5 174.320312 L 169.292969 181.40625 Z M 208.617188 211.886719 L 208.617188 203.546875 L 151.097656 181.449219 L 187.5 167.277344 L 223.902344 181.449219 L 195.402344 192.398438 L 206.515625 196.667969 L 246 181.496094 L 187.5 158.722656 L 129 181.496094 L 197.503906 207.816406 L 187.5 211.660156 L 151.847656 197.960938 L 151.847656 221.324219 L 187.5 235.023438 L 223.15625 221.324219 L 223.15625 197.960938 L 213.960938 201.492188 L 213.960938 210.941406 L 211.78125 209.992188 Z M 208.617188 211.886719 " fill-opacity="1" fill-rule="evenodd"/></g><g clip-path="url(#ccb3264acd)"><path fill="#0d0149" d="M 148.277344 141.003906 L 150.046875 146.449219 L 155.773438 146.449219 L 151.140625 149.816406 L 152.910156 155.265625 L 148.277344 151.898438 L 143.640625 155.265625 L 145.414062 149.816406 L 140.777344 146.449219 L 146.507812 146.449219 Z M 148.277344 141.003906 " fill-opacity="1" fill-rule="nonzero"/></g><g clip-path="url(#18fe83a80c)"><path fill="#0d0149" d="M 226.71875 141.003906 L 228.488281 146.449219 L 234.21875 146.449219 L 229.582031 149.816406 L 231.351562 155.265625 L 226.71875 151.898438 L 222.085938 155.265625 L 223.855469 149.816406 L 219.222656 146.449219 L 224.949219 146.449219 Z M 226.71875 141.003906 " fill-opacity="1" fill-rule="nonzero"/></g><g fill="#0d0149" fill-opacity="1"><g transform="translate(116.528591, 108.352129)"><g><path d="M -0.742188 -11.4375 C -0.535156 -11.640625 -0.386719 -11.867188 -0.359375 -12.105469 C -0.324219 -12.339844 -0.386719 -12.578125 -0.644531 -12.839844 C -0.917969 -13.113281 -1.359375 -13.242188 -1.878906 -13.234375 C -2.398438 -13.222656 -2.964844 -13.085938 -3.523438 -12.851562 C -4.085938 -12.617188 -4.605469 -12.285156 -5.007812 -11.890625 C -5.816406 -11.089844 -6.28125 -10.15625 -6.382812 -9.253906 C -6.488281 -8.34375 -6.199219 -7.464844 -5.515625 -6.765625 C -5.203125 -6.453125 -4.871094 -6.238281 -4.519531 -6.121094 C -3.8125 -5.871094 -3.066406 -5.890625 -2.300781 -6.09375 C -1.535156 -6.292969 -0.773438 -6.582031 -0.0820312 -6.855469 C 0.265625 -7 0.585938 -7.105469 0.894531 -7.183594 C 1.484375 -7.332031 1.992188 -7.339844 2.316406 -7.011719 C 2.632812 -6.691406 2.683594 -6.253906 2.574219 -5.828125 C 2.464844 -5.390625 2.195312 -4.953125 1.867188 -4.628906 C 1.523438 -4.292969 1.109375 -4.070312 0.703125 -3.945312 C 0.292969 -3.816406 -0.113281 -3.785156 -0.445312 -3.867188 C -0.898438 -3.84375 -1.246094 -3.753906 -1.480469 -3.519531 C -1.71875 -3.285156 -1.800781 -3.003906 -1.757812 -2.746094 C -1.71875 -2.480469 -1.566406 -2.230469 -1.328125 -2.042969 C -0.839844 -1.722656 -0.128906 -1.550781 0.691406 -1.683594 C 1.507812 -1.804688 2.421875 -2.246094 3.324219 -3.136719 C 4.074219 -3.875 4.621094 -4.863281 4.789062 -5.875 C 4.960938 -6.875 4.746094 -7.894531 3.960938 -8.691406 C 3.65625 -9 3.328125 -9.214844 2.976562 -9.328125 C 2.265625 -9.566406 1.492188 -9.519531 0.695312 -9.3125 C -0.0976562 -9.097656 -0.871094 -8.808594 -1.597656 -8.53125 C -1.964844 -8.390625 -2.304688 -8.28125 -2.617188 -8.195312 C -3.246094 -8.027344 -3.757812 -8.023438 -4.082031 -8.351562 C -4.351562 -8.628906 -4.414062 -9.027344 -4.332031 -9.398438 C -4.25 -9.769531 -4.027344 -10.148438 -3.761719 -10.414062 C -3.230469 -10.933594 -2.632812 -11.050781 -1.734375 -11.039062 C -1.476562 -11.042969 -1.289062 -11.082031 -1.128906 -11.144531 C -0.976562 -11.207031 -0.863281 -11.304688 -0.742188 -11.4375 Z M -0.742188 -11.4375 "/></g></g></g><g fill="#0d0149" fill-opacity="1"><g transform="translate(123.727482, 101.262319)"><g><path d="M 4.152344 -3.164062 C 4.71875 -3.613281 5.261719 -4.261719 5.582031 -4.875 C 5.902344 -5.484375 5.996094 -6.078125 5.691406 -6.460938 C 5.429688 -6.792969 5.035156 -6.851562 4.695312 -6.738281 C 4.351562 -6.625 4.050781 -6.371094 3.9375 -6.089844 C 3.820312 -5.507812 3.5 -4.976562 3.027344 -4.601562 C 2.53125 -4.210938 1.925781 -4.066406 1.347656 -4.113281 C 0.773438 -4.160156 0.210938 -4.402344 -0.183594 -4.820312 L 4.480469 -8.507812 C 5.097656 -9 5.226562 -9.304688 4.835938 -9.800781 C 4.035156 -10.8125 2.933594 -11.386719 1.789062 -11.5 C 0.644531 -11.613281 -0.546875 -11.285156 -1.550781 -10.492188 C -2.554688 -9.695312 -3.171875 -8.582031 -3.34375 -7.40625 C -3.507812 -6.21875 -3.210938 -4.980469 -2.367188 -3.917969 C -1.574219 -2.914062 -0.4375 -2.328125 0.738281 -2.203125 C 1.921875 -2.074219 3.148438 -2.371094 4.152344 -3.164062 Z M -0.429688 -9.074219 C 0.0429688 -9.449219 0.625 -9.621094 1.191406 -9.589844 C 1.746094 -9.550781 2.296875 -9.324219 2.707031 -8.882812 L -1.058594 -5.902344 C -1.375 -6.417969 -1.453125 -7.019531 -1.339844 -7.585938 C -1.226562 -8.15625 -0.910156 -8.695312 -0.429688 -9.074219 Z M -0.429688 -9.074219 "/></g></g></g><g fill="#0d0149" fill-opacity="1"><g transform="translate(132.459796, 94.426597)"><g><path d="M 3.019531 -11.21875 C 2.488281 -11.375 1.894531 -11.367188 1.28125 -11.25 C 0.671875 -11.121094 0.0703125 -10.878906 -0.464844 -10.542969 C -1.546875 -9.863281 -2.246094 -8.804688 -2.511719 -7.648438 C -2.777344 -6.496094 -2.605469 -5.238281 -1.925781 -4.152344 C -1.246094 -3.070312 -0.183594 -2.359375 0.972656 -2.097656 C 2.125 -1.832031 3.386719 -2 4.46875 -2.679688 C 5.320312 -3.214844 5.953125 -3.945312 6.316406 -4.636719 C 6.671875 -5.328125 6.742188 -5.992188 6.476562 -6.417969 C 6.242188 -6.789062 5.859375 -6.960938 5.488281 -6.894531 C 5.136719 -6.839844 4.847656 -6.59375 4.679688 -6.308594 C 4.519531 -5.730469 4.144531 -5.21875 3.667969 -4.84375 C 3.0625 -4.339844 2.355469 -4.140625 1.683594 -4.21875 C 1.015625 -4.289062 0.394531 -4.664062 -0.03125 -5.34375 C -0.472656 -6.042969 -0.507812 -6.773438 -0.273438 -7.410156 C -0.0390625 -8.046875 0.480469 -8.582031 1.128906 -8.890625 C 1.839844 -9.171875 2.558594 -9.210938 3.265625 -9.285156 C 3.566406 -9.394531 3.769531 -9.636719 3.851562 -9.910156 C 3.941406 -10.175781 3.902344 -10.484375 3.742188 -10.738281 C 3.597656 -10.972656 3.355469 -11.128906 3.019531 -11.21875 Z M 3.019531 -11.21875 "/></g></g></g><g fill="#0d0149" fill-opacity="1"><g transform="translate(141.040555, 89.055603)"><g><path d="M -1.46875 -4.347656 C -0.910156 -3.195312 0.0742188 -2.375 1.199219 -1.992188 C 2.324219 -1.605469 3.585938 -1.632812 4.738281 -2.191406 C 5.890625 -2.746094 6.703125 -3.726562 7.097656 -4.847656 C 7.496094 -5.96875 7.453125 -7.246094 6.894531 -8.394531 C 6.339844 -9.546875 5.367188 -10.363281 4.242188 -10.746094 C 3.117188 -11.132812 1.84375 -11.101562 0.695312 -10.542969 C -0.457031 -9.988281 -1.261719 -9.011719 -1.65625 -7.890625 C -2.054688 -6.769531 -2.023438 -5.496094 -1.46875 -4.347656 Z M 0.546875 -5.320312 C 0.253906 -5.929688 0.214844 -6.613281 0.40625 -7.207031 C 0.601562 -7.804688 1.019531 -8.320312 1.628906 -8.613281 C 2.238281 -8.910156 2.902344 -8.917969 3.488281 -8.699219 C 4.074219 -8.480469 4.585938 -8.03125 4.882812 -7.421875 C 5.179688 -6.800781 5.21875 -6.121094 5.023438 -5.527344 C 4.832031 -4.929688 4.414062 -4.414062 3.804688 -4.121094 C 3.195312 -3.824219 2.53125 -3.816406 1.945312 -4.035156 C 1.359375 -4.25 0.847656 -4.703125 0.546875 -5.320312 Z M 0.546875 -5.320312 "/></g></g></g><g fill="#0d0149" fill-opacity="1"><g transform="translate(150.988298, 84.248422)"><g><path d="M 6.136719 -10.390625 C 5.152344 -10.929688 3.976562 -11.082031 2.769531 -10.664062 C 2.136719 -10.445312 1.550781 -10.042969 1.050781 -9.554688 C 0.644531 -9.144531 0.304688 -8.667969 0.0664062 -8.171875 L -0.152344 -8.511719 C -0.570312 -9.234375 -0.996094 -9.375 -1.429688 -9.226562 C -1.8125 -9.09375 -1.933594 -8.84375 -1.804688 -8.460938 L 0.664062 -1.304688 C 0.765625 -1.011719 0.972656 -0.785156 1.222656 -0.660156 C 1.476562 -0.539062 1.78125 -0.515625 2.074219 -0.617188 C 2.359375 -0.714844 2.585938 -0.921875 2.710938 -1.171875 C 2.832031 -1.425781 2.863281 -1.734375 2.761719 -2.027344 L 1.617188 -5.34375 C 1.402344 -5.972656 1.480469 -6.667969 1.773438 -7.257812 C 2.070312 -7.835938 2.570312 -8.328125 3.199219 -8.542969 C 3.839844 -8.765625 4.476562 -8.6875 5.011719 -8.394531 C 5.550781 -8.101562 5.988281 -7.585938 6.210938 -6.945312 L 7.359375 -3.613281 C 7.457031 -3.328125 7.671875 -3.105469 7.925781 -2.980469 C 8.175781 -2.859375 8.484375 -2.828125 8.777344 -2.929688 C 9.070312 -3.03125 9.292969 -3.253906 9.414062 -3.515625 C 9.53125 -3.773438 9.550781 -4.058594 9.457031 -4.335938 L 8.304688 -7.679688 C 7.886719 -8.886719 7.109375 -9.84375 6.136719 -10.390625 Z M 6.136719 -10.390625 "/></g></g></g><g fill="#0d0149" fill-opacity="1"><g transform="translate(162.352723, 80.379666)"><g><path d="M 6.867188 -13.554688 C 6.632812 -13.707031 6.328125 -13.765625 6.027344 -13.703125 C 5.730469 -13.640625 5.480469 -13.460938 5.328125 -13.226562 C 5.175781 -12.992188 5.109375 -12.6875 5.171875 -12.386719 L 5.789062 -9.496094 C 4.917969 -10.011719 3.921875 -10.222656 2.992188 -10.023438 C 1.742188 -9.757812 0.769531 -9.011719 0.171875 -8.027344 C -0.425781 -7.042969 -0.65625 -5.8125 -0.386719 -4.5625 C -0.121094 -3.3125 0.59375 -2.269531 1.539062 -1.617188 C 2.488281 -0.964844 3.683594 -0.679688 4.933594 -0.949219 C 6.183594 -1.214844 7.085938 -1.945312 7.617188 -2.914062 C 7.648438 -2.960938 7.667969 -3.003906 7.683594 -3.054688 L 7.894531 -2.695312 C 8.195312 -1.960938 8.628906 -1.738281 9.070312 -1.832031 C 9.464844 -1.917969 9.628906 -2.152344 9.542969 -2.546875 L 7.34375 -12.847656 C 7.277344 -13.152344 7.101562 -13.402344 6.867188 -13.554688 Z M 4.679688 -3.085938 C 4.015625 -2.945312 3.367188 -3.09375 2.851562 -3.445312 C 2.332031 -3.796875 1.945312 -4.359375 1.800781 -5.03125 C 1.660156 -5.691406 1.785156 -6.363281 2.113281 -6.894531 C 2.441406 -7.425781 2.972656 -7.828125 3.636719 -7.96875 C 4.296875 -8.109375 4.945312 -7.960938 5.472656 -7.613281 C 5.996094 -7.261719 6.386719 -6.703125 6.527344 -6.039062 C 6.671875 -5.367188 6.546875 -4.695312 6.207031 -4.164062 C 5.871094 -3.628906 5.339844 -3.226562 4.679688 -3.085938 Z M 4.679688 -3.085938 "/></g></g></g><g fill="#0d0149" fill-opacity="1"><g transform="translate(173.720719, 77.986288)"><g><path d="M 8.421875 -9.980469 C 7.964844 -9.941406 7.625 -9.605469 7.546875 -8.808594 L 7.484375 -8.546875 C 6.707031 -9.304688 5.660156 -9.730469 4.394531 -9.617188 C 3.121094 -9.5 2.027344 -8.871094 1.257812 -7.960938 C 0.492188 -7.050781 0.0742188 -5.851562 0.1875 -4.578125 C 0.304688 -3.304688 0.933594 -2.191406 1.851562 -1.433594 C 2.769531 -0.675781 3.960938 -0.257812 5.234375 -0.371094 C 6.460938 -0.484375 7.410156 -1.058594 8.03125 -1.910156 L 8.222656 -1.378906 C 8.402344 -0.953125 8.71875 -0.6875 9.179688 -0.730469 C 9.617188 -0.769531 9.839844 -1.046875 9.796875 -1.503906 L 9.46875 -5.128906 L 9.078125 -9.4375 C 9.039062 -9.839844 8.824219 -10.019531 8.421875 -9.980469 Z M 6.679688 -3.390625 C 6.289062 -2.902344 5.714844 -2.570312 5.042969 -2.507812 C 4.367188 -2.445312 3.742188 -2.671875 3.269531 -3.082031 C 2.800781 -3.492188 2.480469 -4.097656 2.417969 -4.78125 C 2.355469 -5.453125 2.5625 -6.105469 2.953125 -6.59375 C 3.339844 -7.082031 3.914062 -7.417969 4.589844 -7.480469 C 5.265625 -7.542969 5.890625 -7.316406 6.359375 -6.90625 C 6.832031 -6.496094 7.152344 -5.890625 7.210938 -5.214844 C 7.273438 -4.53125 7.070312 -3.882812 6.679688 -3.390625 Z M 6.679688 -3.390625 "/></g></g></g><g fill="#0d0149" fill-opacity="1"><g transform="translate(185.376979, 77.041756)"><g><path d="M 6.851562 -8.855469 C 6.355469 -9.042969 5.753906 -9.085938 5.3125 -9.054688 C 4.699219 -8.960938 4.148438 -8.726562 3.695312 -8.429688 C 3.34375 -8.199219 3.046875 -7.941406 2.828125 -7.699219 L 2.75 -8.058594 C 2.601562 -8.878906 2.246094 -9.15625 1.785156 -9.164062 C 1.382812 -9.167969 1.183594 -8.972656 1.175781 -8.570312 L 1.066406 -1 C 1.0625 -0.691406 1.179688 -0.40625 1.375 -0.207031 C 1.570312 -0.00390625 1.851562 0.121094 2.160156 0.125 C 2.460938 0.128906 2.746094 0.0117188 2.945312 -0.183594 C 3.148438 -0.378906 3.28125 -0.660156 3.285156 -0.96875 L 3.339844 -4.738281 C 3.371094 -4.992188 3.433594 -5.238281 3.519531 -5.46875 C 3.707031 -5.929688 3.984375 -6.300781 4.34375 -6.558594 C 4.707031 -6.816406 5.140625 -6.960938 5.574219 -6.925781 C 5.789062 -6.90625 5.996094 -6.894531 6.203125 -6.878906 C 6.71875 -6.84375 6.953125 -6.859375 7.230469 -7.015625 C 7.496094 -7.164062 7.707031 -7.460938 7.710938 -7.808594 C 7.71875 -8.335938 7.339844 -8.671875 6.851562 -8.855469 Z M 6.851562 -8.855469 "/></g></g></g><g fill="#0d0149" fill-opacity="1"><g transform="translate(194.066555, 77.16342)"><g><path d="M 3.089844 0.640625 C 2.972656 0.75 2.832031 0.835938 2.683594 0.886719 C 2.367188 1.003906 2.046875 1.0625 1.738281 1.113281 C 1.585938 1.144531 1.449219 1.175781 1.320312 1.226562 C 1.070312 1.332031 0.890625 1.511719 0.851562 1.855469 C 0.773438 2.566406 1.253906 3.007812 1.972656 3.078125 C 2.761719 3.140625 3.382812 3 3.898438 2.707031 C 4.414062 2.414062 4.816406 1.960938 5.15625 1.363281 L 9.8125 -6.574219 C 9.925781 -6.761719 9.996094 -6.941406 10.003906 -7.113281 C 10.023438 -7.449219 9.910156 -7.710938 9.734375 -7.910156 C 9.558594 -8.109375 9.328125 -8.257812 9.03125 -8.289062 C 8.722656 -8.324219 8.449219 -8.25 8.210938 -8.070312 C 7.972656 -7.886719 7.953125 -7.796875 7.675781 -7.269531 C 7.542969 -7 7.347656 -6.632812 7.105469 -6.167969 C 6.625 -5.238281 5.9375 -3.933594 5.074219 -2.289062 L 3.5 -8.164062 C 3.414062 -8.511719 3.195312 -8.765625 2.917969 -8.910156 C 2.640625 -9.042969 2.3125 -9.054688 2.027344 -8.960938 C 1.394531 -8.738281 1.183594 -8.109375 1.375 -7.472656 L 2.53125 -3.9375 L 2.964844 -2.640625 C 3.097656 -2.21875 3.222656 -1.835938 3.328125 -1.5 C 3.433594 -1.167969 3.527344 -0.902344 3.597656 -0.695312 C 3.660156 -0.488281 3.695312 -0.390625 3.695312 -0.378906 Z M 3.089844 0.640625 "/></g></g></g><g fill="#0d0149" fill-opacity="1"><g transform="translate(204.234879, 78.434152)"><g/></g></g><g fill="#0d0149" fill-opacity="1"><g transform="translate(209.231095, 79.325781)"><g><path d="M 9.539062 -6.351562 C 9.820312 -6.273438 10.089844 -6.257812 10.308594 -6.355469 C 10.527344 -6.441406 10.703125 -6.617188 10.800781 -6.96875 C 10.90625 -7.339844 10.792969 -7.789062 10.527344 -8.234375 C 10.257812 -8.679688 9.859375 -9.101562 9.375 -9.46875 C 8.890625 -9.839844 8.347656 -10.125 7.800781 -10.273438 C 6.707031 -10.578125 5.664062 -10.515625 4.832031 -10.148438 C 3.988281 -9.785156 3.371094 -9.097656 3.109375 -8.15625 C 2.992188 -7.730469 2.972656 -7.335938 3.046875 -6.972656 C 3.183594 -6.234375 3.574219 -5.597656 4.132812 -5.035156 C 4.6875 -4.472656 5.316406 -3.957031 5.902344 -3.492188 C 6.199219 -3.265625 6.449219 -3.039062 6.667969 -2.8125 C 7.09375 -2.375 7.355469 -1.941406 7.234375 -1.496094 C 7.113281 -1.0625 6.757812 -0.796875 6.335938 -0.679688 C 5.898438 -0.554688 5.386719 -0.570312 4.941406 -0.695312 C 4.480469 -0.820312 4.082031 -1.070312 3.769531 -1.359375 C 3.453125 -1.652344 3.222656 -1.988281 3.128906 -2.316406 C 2.882812 -2.695312 2.628906 -2.953125 2.3125 -3.039062 C 1.984375 -3.128906 1.703125 -3.0625 1.5 -2.894531 C 1.289062 -2.726562 1.152344 -2.472656 1.105469 -2.171875 C 1.070312 -1.585938 1.277344 -0.886719 1.804688 -0.242188 C 2.316406 0.40625 3.15625 0.976562 4.378906 1.316406 C 5.394531 1.597656 6.519531 1.574219 7.480469 1.214844 C 8.433594 0.863281 9.210938 0.171875 9.507812 -0.90625 C 9.625 -1.324219 9.644531 -1.71875 9.570312 -2.082031 C 9.421875 -2.8125 8.992188 -3.457031 8.414062 -4.046875 C 7.832031 -4.628906 7.199219 -5.152344 6.59375 -5.644531 C 6.289062 -5.894531 6.023438 -6.132812 5.796875 -6.359375 C 5.335938 -6.820312 5.078125 -7.261719 5.199219 -7.707031 C 5.304688 -8.078125 5.617188 -8.332031 5.980469 -8.445312 C 6.34375 -8.5625 6.78125 -8.558594 7.144531 -8.457031 C 7.859375 -8.257812 8.261719 -7.796875 8.695312 -7.011719 C 8.832031 -6.792969 8.957031 -6.648438 9.09375 -6.542969 C 9.222656 -6.441406 9.363281 -6.390625 9.539062 -6.351562 Z M 9.539062 -6.351562 "/></g></g></g><g fill="#0d0149" fill-opacity="1"><g transform="translate(218.977439, 82.052044)"><g><path d="M 10.816406 -4.242188 C 10.625 -4.761719 10.265625 -5.238281 9.804688 -5.660156 C 9.34375 -6.074219 8.789062 -6.414062 8.203125 -6.644531 C 7.011719 -7.109375 5.742188 -7.042969 4.65625 -6.566406 C 3.570312 -6.09375 2.660156 -5.210938 2.191406 -4.019531 C 1.726562 -2.828125 1.789062 -1.550781 2.261719 -0.464844 C 2.738281 0.617188 3.621094 1.53125 4.8125 2 C 5.75 2.367188 6.710938 2.441406 7.484375 2.320312 C 8.25 2.195312 8.828125 1.855469 9.011719 1.390625 C 9.171875 0.980469 9.078125 0.570312 8.808594 0.3125 C 8.550781 0.0625 8.179688 -0.0234375 7.855469 0.0117188 C 7.296875 0.226562 6.660156 0.226562 6.074219 0.0703125 C 5.308594 -0.121094 4.730469 -0.570312 4.394531 -1.15625 C 4.054688 -1.734375 3.984375 -2.457031 4.277344 -3.203125 C 4.578125 -3.972656 5.144531 -4.4375 5.792969 -4.625 C 6.445312 -4.816406 7.183594 -4.71875 7.820312 -4.378906 C 8.46875 -3.972656 8.925781 -3.417969 9.410156 -2.894531 C 9.675781 -2.722656 9.988281 -2.699219 10.257812 -2.796875 C 10.523438 -2.882812 10.75 -3.097656 10.859375 -3.378906 C 10.960938 -3.632812 10.941406 -3.921875 10.816406 -4.242188 Z M 10.816406 -4.242188 "/></g></g></g><g fill="#0d0149" fill-opacity="1"><g transform="translate(228.39438, 85.726101)"><g><path d="M 11.804688 -2.625 C 11.542969 -3.703125 10.84375 -4.667969 9.738281 -5.253906 C 9.082031 -5.605469 8.375 -5.671875 7.738281 -5.59375 C 7.214844 -5.53125 6.738281 -5.355469 6.433594 -5.144531 L 8.023438 -8.144531 C 8.167969 -8.410156 8.183594 -8.722656 8.101562 -8.988281 C 8.019531 -9.253906 7.828125 -9.496094 7.5625 -9.636719 C 7.285156 -9.78125 6.980469 -9.804688 6.714844 -9.726562 C 6.445312 -9.644531 6.207031 -9.449219 6.066406 -9.183594 L 1.40625 -0.402344 C 1.261719 -0.128906 1.238281 0.175781 1.320312 0.445312 C 1.402344 0.710938 1.59375 0.953125 1.867188 1.097656 C 2.132812 1.238281 2.4375 1.261719 2.707031 1.179688 C 2.972656 1.097656 3.222656 0.910156 3.367188 0.636719 L 4.945312 -2.335938 C 5.257812 -2.925781 5.828125 -3.378906 6.472656 -3.613281 C 7.117188 -3.847656 7.835938 -3.835938 8.445312 -3.515625 C 9.042969 -3.199219 9.417969 -2.679688 9.570312 -2.085938 C 9.726562 -1.496094 9.644531 -0.824219 9.328125 -0.226562 L 8.367188 1.585938 L 7.734375 2.78125 C 7.578125 3.074219 7.515625 3.390625 7.578125 3.679688 C 7.625 3.96875 7.789062 4.238281 8.121094 4.414062 C 8.398438 4.5625 8.71875 4.574219 8.992188 4.484375 C 9.253906 4.386719 9.496094 4.195312 9.632812 3.9375 L 10.023438 3.199219 L 11.292969 0.804688 C 11.890625 -0.324219 12.0625 -1.542969 11.804688 -2.625 Z M 11.804688 -2.625 "/></g></g></g><g fill="#0d0149" fill-opacity="1"><g transform="translate(238.961233, 91.402944)"><g><path d="M 3.066406 -3.414062 C 2.335938 -2.363281 2.105469 -1.105469 2.324219 0.0664062 C 2.542969 1.238281 3.183594 2.324219 4.234375 3.050781 C 5.285156 3.78125 6.535156 4.007812 7.710938 3.800781 C 8.882812 3.597656 9.972656 2.933594 10.699219 1.882812 C 11.429688 0.832031 11.664062 -0.414062 11.445312 -1.582031 C 11.226562 -2.753906 10.578125 -3.84375 9.527344 -4.574219 C 8.472656 -5.304688 7.230469 -5.523438 6.058594 -5.320312 C 4.886719 -5.113281 3.792969 -4.464844 3.066406 -3.414062 Z M 4.90625 -2.136719 C 5.289062 -2.695312 5.867188 -3.0625 6.480469 -3.1875 C 7.089844 -3.308594 7.746094 -3.199219 8.304688 -2.8125 C 8.859375 -2.425781 9.195312 -1.851562 9.292969 -1.234375 C 9.390625 -0.617188 9.246094 0.0507812 8.859375 0.605469 C 8.46875 1.171875 7.894531 1.539062 7.28125 1.664062 C 6.667969 1.789062 6.011719 1.675781 5.457031 1.289062 C 4.902344 0.90625 4.566406 0.328125 4.46875 -0.289062 C 4.371094 -0.90625 4.511719 -1.574219 4.90625 -2.136719 Z M 4.90625 -2.136719 "/></g></g></g><g fill="#0d0149" fill-opacity="1"><g transform="translate(248.031931, 97.738141)"><g><path d="M 3.433594 -3.042969 C 2.589844 -2.082031 2.214844 -0.855469 2.300781 0.332031 C 2.382812 1.519531 2.898438 2.671875 3.859375 3.515625 C 4.820312 4.359375 6.039062 4.726562 7.226562 4.65625 C 8.414062 4.585938 9.574219 4.050781 10.417969 3.085938 C 11.261719 2.125 11.632812 0.917969 11.550781 -0.269531 C 11.46875 -1.457031 10.945312 -2.617188 9.984375 -3.460938 C 9.023438 -4.304688 7.8125 -4.667969 6.625 -4.59375 C 5.4375 -4.523438 4.277344 -4.003906 3.433594 -3.042969 Z M 5.117188 -1.566406 C 5.5625 -2.074219 6.175781 -2.375 6.800781 -2.429688 C 7.421875 -2.480469 8.0625 -2.296875 8.570312 -1.851562 C 9.078125 -1.402344 9.34375 -0.792969 9.371094 -0.167969 C 9.398438 0.457031 9.179688 1.101562 8.734375 1.609375 C 8.28125 2.128906 7.667969 2.425781 7.046875 2.480469 C 6.421875 2.535156 5.785156 2.347656 5.273438 1.902344 C 4.765625 1.457031 4.5 0.847656 4.472656 0.222656 C 4.445312 -0.402344 4.664062 -1.050781 5.117188 -1.566406 Z M 5.117188 -1.566406 "/></g></g></g><g fill="#0d0149" fill-opacity="1"><g transform="translate(256.320372, 105.22494)"><g><path d="M 1.460938 0.0546875 C 1.238281 0.269531 1.121094 0.554688 1.113281 0.832031 C 1.109375 1.113281 1.21875 1.398438 1.433594 1.625 C 1.640625 1.839844 1.925781 1.957031 2.203125 1.964844 C 2.484375 1.96875 2.777344 1.867188 3 1.652344 L 10.160156 -5.242188 C 10.378906 -5.453125 10.488281 -5.742188 10.496094 -6.023438 C 10.5 -6.300781 10.394531 -6.589844 10.183594 -6.804688 C 9.96875 -7.027344 9.683594 -7.148438 9.40625 -7.152344 C 9.125 -7.15625 8.839844 -7.050781 8.621094 -6.839844 Z M 1.460938 0.0546875 "/></g></g></g><g clip-path="url(#add62f8744)"><path fill="#f9971d" d="M 204.019531 150.832031 L 201.550781 138.621094 L 195.800781 138.621094 L 204.019531 115.585938 C 196.902344 109.738281 190.824219 102.792969 190.824219 92.957031 L 188.347656 92.957031 L 188.347656 120.042969 C 188.601562 120.171875 188.800781 120.347656 188.949219 120.570312 C 189.097656 120.792969 189.167969 121.035156 189.171875 121.292969 C 189.171875 121.484375 189.128906 121.667969 189.042969 121.84375 C 188.960938 122.023438 188.839844 122.179688 188.6875 122.3125 C 188.53125 122.449219 188.355469 122.554688 188.152344 122.628906 C 187.949219 122.703125 187.738281 122.738281 187.519531 122.738281 C 187.300781 122.738281 187.089844 122.703125 186.890625 122.628906 C 186.6875 122.554688 186.507812 122.449219 186.355469 122.3125 C 186.199219 122.179688 186.082031 122.023438 185.996094 121.84375 C 185.914062 121.667969 185.871094 121.484375 185.871094 121.292969 C 185.871094 121.035156 185.945312 120.792969 186.089844 120.570312 C 186.238281 120.347656 186.4375 120.171875 186.691406 120.042969 L 186.691406 92.957031 L 184.214844 92.957031 C 184.214844 103.316406 178.082031 110.144531 171.019531 116.046875 L 179.238281 139.140625 L 173.460938 139.140625 L 170.984375 150.832031 Z M 204.019531 150.832031 " fill-opacity="1" fill-rule="nonzero"/></g></svg>