<svg width="132" height="25" viewBox="0 0 132 25" fill="none" xmlns="http://www.w3.org/2000/svg">
<path d="M12.0004 12.7777V7.97772M12.0004 16.3355V16.3777M21.6004 6.77772L21.6004 18.7778C21.6004 20.7661 19.9886 22.3778 18.0004 22.3778H6.00039C4.01217 22.3778 2.40039 20.7661 2.40039 18.7778V6.77772C2.40039 4.7895 4.01217 3.17772 6.00039 3.17772H18.0004C19.9886 3.17772 21.6004 4.7895 21.6004 6.77772Z" stroke="#6A5ACD" stroke-width="1.5" stroke-linecap="round" stroke-linejoin="round"/>
<path d="M46.58 14.5328L45.089 10.6338C44.9817 10.3678 44.8743 10.0318 44.767 9.62578C44.7157 9.82644 44.662 10.0131 44.606 10.1858C44.5547 10.3584 44.5033 10.5124 44.452 10.6478L42.968 14.5328H46.58ZM49.527 18.2778H48.379C48.2483 18.2778 48.141 18.2451 48.057 18.1798C47.973 18.1144 47.9123 18.0304 47.875 17.9278L46.986 15.5968H42.555L41.666 17.9278C41.6333 18.0164 41.5727 18.0981 41.484 18.1728C41.3953 18.2428 41.288 18.2778 41.162 18.2778H40.014L44.018 8.22578H45.523L49.527 18.2778ZM54.695 12.3908C54.6576 12.4514 54.618 12.4958 54.576 12.5238C54.534 12.5471 54.4803 12.5588 54.415 12.5588C54.3403 12.5588 54.2563 12.5331 54.163 12.4818C54.0743 12.4304 53.9646 12.3744 53.834 12.3138C53.708 12.2531 53.5586 12.1971 53.386 12.1458C53.2133 12.0944 53.008 12.0688 52.77 12.0688C52.574 12.0688 52.3943 12.0944 52.231 12.1458C52.0723 12.1924 51.937 12.2601 51.825 12.3488C51.713 12.4328 51.6266 12.5354 51.566 12.6568C51.5053 12.7734 51.475 12.8994 51.475 13.0348C51.475 13.2121 51.5263 13.3591 51.629 13.4758C51.7363 13.5924 51.874 13.6928 52.042 13.7768C52.2146 13.8608 52.4083 13.9378 52.623 14.0078C52.8423 14.0731 53.064 14.1431 53.288 14.2178C53.5166 14.2924 53.7383 14.3788 53.953 14.4768C54.1723 14.5701 54.366 14.6891 54.534 14.8338C54.7066 14.9738 54.8443 15.1441 54.947 15.3448C55.0543 15.5454 55.108 15.7904 55.108 16.0798C55.108 16.4111 55.0473 16.7191 54.926 17.0038C54.8093 17.2838 54.6343 17.5264 54.401 17.7318C54.1723 17.9371 53.8876 18.0981 53.547 18.2148C53.2063 18.3314 52.8166 18.3898 52.378 18.3898C51.888 18.3898 51.4353 18.3081 51.02 18.1448C50.6046 17.9814 50.257 17.7738 49.977 17.5218L50.299 16.9968C50.3363 16.9314 50.383 16.8824 50.439 16.8498C50.495 16.8124 50.5696 16.7938 50.663 16.7938C50.7516 16.7938 50.8426 16.8264 50.936 16.8918C51.0293 16.9571 51.1413 17.0294 51.272 17.1088C51.4026 17.1834 51.5613 17.2534 51.748 17.3188C51.9346 17.3794 52.168 17.4098 52.448 17.4098C52.6813 17.4098 52.8843 17.3818 53.057 17.3258C53.2296 17.2651 53.372 17.1858 53.484 17.0878C53.6006 16.9851 53.687 16.8684 53.743 16.7378C53.799 16.6071 53.827 16.4694 53.827 16.3248C53.827 16.1381 53.7733 15.9841 53.666 15.8628C53.5633 15.7368 53.4256 15.6294 53.253 15.5408C53.085 15.4521 52.8913 15.3751 52.672 15.3098C52.4526 15.2444 52.2286 15.1744 52 15.0998C51.7713 15.0251 51.5473 14.9388 51.328 14.8408C51.1086 14.7428 50.9126 14.6191 50.74 14.4698C50.572 14.3204 50.4343 14.1384 50.327 13.9238C50.2243 13.7091 50.173 13.4478 50.173 13.1398C50.173 12.8644 50.229 12.6008 50.341 12.3488C50.4576 12.0968 50.6233 11.8751 50.838 11.6838C51.0573 11.4924 51.3256 11.3408 51.643 11.2288C51.965 11.1121 52.3313 11.0538 52.742 11.0538C53.2133 11.0538 53.638 11.1284 54.016 11.2778C54.3986 11.4271 54.7253 11.6324 54.996 11.8938L54.695 12.3908ZM60.779 12.3908C60.7416 12.4514 60.702 12.4958 60.66 12.5238C60.618 12.5471 60.5643 12.5588 60.499 12.5588C60.4243 12.5588 60.3403 12.5331 60.247 12.4818C60.1583 12.4304 60.0486 12.3744 59.918 12.3138C59.792 12.2531 59.6426 12.1971 59.47 12.1458C59.2973 12.0944 59.092 12.0688 58.854 12.0688C58.658 12.0688 58.4783 12.0944 58.315 12.1458C58.1563 12.1924 58.021 12.2601 57.909 12.3488C57.797 12.4328 57.7106 12.5354 57.65 12.6568C57.5893 12.7734 57.559 12.8994 57.559 13.0348C57.559 13.2121 57.6103 13.3591 57.713 13.4758C57.8203 13.5924 57.958 13.6928 58.126 13.7768C58.2986 13.8608 58.4923 13.9378 58.707 14.0078C58.9263 14.0731 59.148 14.1431 59.372 14.2178C59.6006 14.2924 59.8223 14.3788 60.037 14.4768C60.2563 14.5701 60.45 14.6891 60.618 14.8338C60.7906 14.9738 60.9283 15.1441 61.031 15.3448C61.1383 15.5454 61.192 15.7904 61.192 16.0798C61.192 16.4111 61.1313 16.7191 61.01 17.0038C60.8933 17.2838 60.7183 17.5264 60.485 17.7318C60.2563 17.9371 59.9716 18.0981 59.631 18.2148C59.2903 18.3314 58.9006 18.3898 58.462 18.3898C57.972 18.3898 57.5193 18.3081 57.104 18.1448C56.6886 17.9814 56.341 17.7738 56.061 17.5218L56.383 16.9968C56.4203 16.9314 56.467 16.8824 56.523 16.8498C56.579 16.8124 56.6536 16.7938 56.747 16.7938C56.8356 16.7938 56.9266 16.8264 57.02 16.8918C57.1133 16.9571 57.2253 17.0294 57.356 17.1088C57.4866 17.1834 57.6453 17.2534 57.832 17.3188C58.0186 17.3794 58.252 17.4098 58.532 17.4098C58.7653 17.4098 58.9683 17.3818 59.141 17.3258C59.3136 17.2651 59.456 17.1858 59.568 17.0878C59.6846 16.9851 59.771 16.8684 59.827 16.7378C59.883 16.6071 59.911 16.4694 59.911 16.3248C59.911 16.1381 59.8573 15.9841 59.75 15.8628C59.6473 15.7368 59.5096 15.6294 59.337 15.5408C59.169 15.4521 58.9753 15.3751 58.756 15.3098C58.5366 15.2444 58.3126 15.1744 58.084 15.0998C57.8553 15.0251 57.6313 14.9388 57.412 14.8408C57.1926 14.7428 56.9966 14.6191 56.824 14.4698C56.656 14.3204 56.5183 14.1384 56.411 13.9238C56.3083 13.7091 56.257 13.4478 56.257 13.1398C56.257 12.8644 56.313 12.6008 56.425 12.3488C56.5416 12.0968 56.7073 11.8751 56.922 11.6838C57.1413 11.4924 57.4096 11.3408 57.727 11.2288C58.049 11.1121 58.4153 11.0538 58.826 11.0538C59.2973 11.0538 59.722 11.1284 60.1 11.2778C60.4826 11.4271 60.8093 11.6324 61.08 11.8938L60.779 12.3908ZM64.0979 11.1658V18.2778H62.7329V11.1658H64.0979ZM64.3569 8.96778C64.3569 9.09378 64.3313 9.21511 64.2799 9.33178C64.2286 9.44378 64.1586 9.54411 64.0699 9.63278C63.9859 9.71678 63.8856 9.78444 63.7689 9.83578C63.6523 9.88244 63.5309 9.90578 63.4049 9.90578C63.2789 9.90578 63.1599 9.88244 63.0479 9.83578C62.9359 9.78444 62.8356 9.71678 62.7469 9.63278C62.6629 9.54411 62.5953 9.44378 62.5439 9.33178C62.4973 9.21511 62.4739 9.09378 62.4739 8.96778C62.4739 8.83711 62.4973 8.71578 62.5439 8.60378C62.5953 8.48711 62.6629 8.38678 62.7469 8.30278C62.8356 8.21411 62.9359 8.14644 63.0479 8.09978C63.1599 8.04844 63.2789 8.02278 63.4049 8.02278C63.5309 8.02278 63.6523 8.04844 63.7689 8.09978C63.8856 8.14644 63.9859 8.21411 64.0699 8.30278C64.1586 8.38678 64.2286 8.48711 64.2799 8.60378C64.3313 8.71578 64.3569 8.83711 64.3569 8.96778ZM68.5732 14.7288C68.8159 14.7288 69.0282 14.6961 69.2102 14.6308C69.3969 14.5654 69.5509 14.4744 69.6722 14.3578C69.7982 14.2364 69.8916 14.0918 69.9522 13.9238C70.0176 13.7558 70.0502 13.5714 70.0502 13.3708C70.0502 12.9601 69.9242 12.6334 69.6722 12.3908C69.4249 12.1434 69.0586 12.0198 68.5732 12.0198C68.0926 12.0198 67.7262 12.1434 67.4742 12.3908C67.2269 12.6334 67.1032 12.9601 67.1032 13.3708C67.1032 13.5714 67.1336 13.7558 67.1942 13.9238C67.2596 14.0871 67.3529 14.2294 67.4742 14.3508C67.6002 14.4674 67.7542 14.5608 67.9362 14.6308C68.1229 14.6961 68.3352 14.7288 68.5732 14.7288ZM70.7502 18.6488C70.7502 18.4808 70.7036 18.3478 70.6102 18.2498C70.5169 18.1471 70.3886 18.0678 70.2252 18.0118C70.0666 17.9511 69.8799 17.9091 69.6652 17.8858C69.4506 17.8578 69.2242 17.8368 68.9862 17.8228C68.7529 17.8088 68.5126 17.7971 68.2652 17.7878C68.0179 17.7738 67.7799 17.7504 67.5512 17.7178C67.3086 17.8391 67.1079 17.9861 66.9492 18.1588C66.7952 18.3314 66.7182 18.5344 66.7182 18.7678C66.7182 18.9171 66.7556 19.0571 66.8302 19.1878C66.9096 19.3184 67.0286 19.4304 67.1872 19.5238C67.3506 19.6218 67.5536 19.6964 67.7962 19.7478C68.0436 19.8038 68.3376 19.8318 68.6782 19.8318C69.0142 19.8318 69.3106 19.8014 69.5672 19.7408C69.8239 19.6848 70.0386 19.6031 70.2112 19.4958C70.3886 19.3931 70.5216 19.2694 70.6102 19.1248C70.7036 18.9801 70.7502 18.8214 70.7502 18.6488ZM72.1362 11.4318V11.9428C72.1362 12.1108 72.0312 12.2158 71.8212 12.2578L71.0582 12.3698C71.1236 12.5144 71.1749 12.6684 71.2122 12.8318C71.2496 12.9904 71.2682 13.1584 71.2682 13.3358C71.2682 13.6858 71.2006 14.0031 71.0652 14.2878C70.9299 14.5678 70.7432 14.8081 70.5052 15.0088C70.2672 15.2094 69.9826 15.3634 69.6512 15.4708C69.3246 15.5781 68.9652 15.6318 68.5732 15.6318C68.2512 15.6318 67.9502 15.5968 67.6702 15.5268C67.5302 15.6108 67.4229 15.7041 67.3482 15.8068C67.2782 15.9048 67.2432 16.0028 67.2432 16.1008C67.2432 16.2641 67.3109 16.3854 67.4462 16.4648C67.5862 16.5441 67.7659 16.6024 67.9852 16.6398C68.2092 16.6724 68.4636 16.6934 68.7482 16.7028C69.0376 16.7121 69.3292 16.7284 69.6232 16.7518C69.9219 16.7704 70.2136 16.8078 70.4982 16.8638C70.7876 16.9151 71.0419 17.0014 71.2612 17.1228C71.4852 17.2394 71.6649 17.4028 71.8002 17.6128C71.9402 17.8181 72.0102 18.0864 72.0102 18.4178C72.0102 18.7258 71.9332 19.0244 71.7792 19.3138C71.6299 19.6031 71.4106 19.8598 71.1212 20.0838C70.8319 20.3078 70.4796 20.4874 70.0642 20.6228C69.6489 20.7581 69.1776 20.8258 68.6502 20.8258C68.1229 20.8258 67.6632 20.7744 67.2712 20.6718C66.8839 20.5691 66.5596 20.4314 66.2982 20.2588C66.0416 20.0861 65.8479 19.8854 65.7172 19.6568C65.5912 19.4281 65.5282 19.1901 65.5282 18.9428C65.5282 18.5974 65.6356 18.3058 65.8502 18.0678C66.0649 17.8251 66.3612 17.6361 66.7392 17.5008C66.5339 17.4074 66.3706 17.2814 66.2492 17.1228C66.1279 16.9594 66.0672 16.7448 66.0672 16.4788C66.0672 16.3761 66.0859 16.2711 66.1232 16.1638C66.1606 16.0518 66.2166 15.9421 66.2912 15.8348C66.3706 15.7228 66.4662 15.6178 66.5782 15.5198C66.6949 15.4218 66.8279 15.3331 66.9772 15.2538C66.6272 15.0578 66.3519 14.7988 66.1512 14.4768C65.9506 14.1501 65.8502 13.7698 65.8502 13.3358C65.8502 12.9858 65.9179 12.6708 66.0532 12.3908C66.1886 12.1108 66.3752 11.8704 66.6132 11.6698C66.8559 11.4691 67.1429 11.3151 67.4742 11.2078C67.8102 11.1004 68.1766 11.0468 68.5732 11.0468C69.1892 11.0468 69.7189 11.1751 70.1622 11.4318H72.1362ZM74.6697 12.1528C74.8237 11.9894 74.9847 11.8401 75.1527 11.7048C75.3207 11.5694 75.498 11.4551 75.6847 11.3618C75.876 11.2638 76.079 11.1891 76.2937 11.1378C76.513 11.0818 76.7464 11.0538 76.9937 11.0538C77.3857 11.0538 77.7287 11.1191 78.0227 11.2498C78.3214 11.3804 78.571 11.5648 78.7717 11.8028C78.9724 12.0361 79.124 12.3184 79.2267 12.6498C79.3294 12.9811 79.3807 13.3474 79.3807 13.7488V18.2778H78.0087V13.7488C78.0087 13.2401 77.892 12.8458 77.6587 12.5658C77.4254 12.2811 77.0684 12.1388 76.5877 12.1388C76.2377 12.1388 75.9087 12.2228 75.6007 12.3908C75.2974 12.5541 75.015 12.7781 74.7537 13.0628V18.2778H73.3887V11.1658H74.2077C74.399 11.1658 74.518 11.2568 74.5647 11.4388L74.6697 12.1528ZM85.9337 13.9308C85.9337 13.6601 85.894 13.4104 85.8147 13.1818C85.74 12.9531 85.628 12.7548 85.4787 12.5868C85.3293 12.4188 85.1473 12.2881 84.9327 12.1948C84.718 12.1014 84.4707 12.0548 84.1907 12.0548C83.6167 12.0548 83.164 12.2204 82.8327 12.5518C82.506 12.8831 82.2983 13.3428 82.2097 13.9308H85.9337ZM87.0607 17.2628C86.8927 17.4588 86.699 17.6291 86.4797 17.7738C86.2603 17.9138 86.027 18.0281 85.7797 18.1168C85.5323 18.2054 85.2757 18.2708 85.0097 18.3128C84.7483 18.3548 84.4893 18.3758 84.2327 18.3758C83.7427 18.3758 83.2877 18.2941 82.8677 18.1308C82.4523 17.9628 82.0907 17.7201 81.7827 17.4028C81.4793 17.0808 81.2413 16.6841 81.0687 16.2128C80.9007 15.7368 80.8167 15.1908 80.8167 14.5748C80.8167 14.0801 80.8937 13.6204 81.0477 13.1958C81.2017 12.7664 81.421 12.3931 81.7057 12.0758C81.995 11.7584 82.3473 11.5088 82.7627 11.3268C83.178 11.1448 83.6447 11.0538 84.1627 11.0538C84.5967 11.0538 84.9957 11.1261 85.3597 11.2708C85.7283 11.4108 86.0457 11.6161 86.3117 11.8868C86.5777 12.1574 86.7853 12.4911 86.9347 12.8878C87.0887 13.2844 87.1657 13.7371 87.1657 14.2458C87.1657 14.4558 87.1423 14.5981 87.0957 14.6728C87.049 14.7428 86.9627 14.7778 86.8367 14.7778H82.1747C82.1887 15.2024 82.2493 15.5734 82.3567 15.8908C82.464 16.2034 82.611 16.4648 82.7977 16.6748C82.989 16.8848 83.2153 17.0411 83.4767 17.1438C83.738 17.2464 84.0297 17.2978 84.3517 17.2978C84.655 17.2978 84.9163 17.2628 85.1357 17.1928C85.3597 17.1228 85.551 17.0481 85.7097 16.9688C85.873 16.8848 86.0083 16.8078 86.1157 16.7378C86.2277 16.6678 86.3257 16.6328 86.4097 16.6328C86.5217 16.6328 86.608 16.6748 86.6687 16.7588L87.0607 17.2628ZM93.2178 12.8878C92.9938 12.5938 92.7512 12.3884 92.4898 12.2718C92.2332 12.1551 91.9438 12.0968 91.6218 12.0968C90.9965 12.0968 90.5112 12.3231 90.1658 12.7758C89.8252 13.2238 89.6548 13.8794 89.6548 14.7428C89.6548 15.1954 89.6922 15.5828 89.7668 15.9048C89.8462 16.2221 89.9582 16.4834 90.1028 16.6888C90.2522 16.8894 90.4342 17.0388 90.6488 17.1368C90.8635 17.2301 91.1062 17.2768 91.3768 17.2768C91.7735 17.2768 92.1165 17.1881 92.4058 17.0108C92.6952 16.8334 92.9658 16.5838 93.2178 16.2618V12.8878ZM94.5898 7.94578V18.2778H93.7638C93.5725 18.2778 93.4535 18.1868 93.4068 18.0048L93.2878 17.1858C92.9845 17.5451 92.6392 17.8344 92.2518 18.0538C91.8692 18.2684 91.4258 18.3758 90.9218 18.3758C90.5158 18.3758 90.1472 18.2964 89.8158 18.1378C89.4892 17.9791 89.2092 17.7481 88.9758 17.4448C88.7425 17.1368 88.5628 16.7564 88.4368 16.3038C88.3108 15.8511 88.2478 15.3308 88.2478 14.7428C88.2478 14.2154 88.3178 13.7254 88.4578 13.2728C88.5978 12.8201 88.8008 12.4281 89.0668 12.0968C89.3328 11.7654 89.6548 11.5064 90.0328 11.3198C90.4108 11.1284 90.8378 11.0328 91.3138 11.0328C91.7432 11.0328 92.1072 11.1028 92.4058 11.2428C92.7092 11.3828 92.9798 11.5811 93.2178 11.8378V7.94578H94.5898ZM106.744 9.47178H103.552V18.2778H102.068V9.47178H98.8623V8.22578H106.744V9.47178ZM110.146 15.1208C109.591 15.1394 109.12 15.1838 108.732 15.2538C108.345 15.3191 108.03 15.4078 107.787 15.5198C107.545 15.6318 107.37 15.7648 107.262 15.9188C107.155 16.0681 107.101 16.2361 107.101 16.4228C107.101 16.6001 107.129 16.7541 107.185 16.8848C107.246 17.0108 107.325 17.1158 107.423 17.1998C107.526 17.2791 107.645 17.3374 107.78 17.3748C107.916 17.4121 108.063 17.4308 108.221 17.4308C108.431 17.4308 108.623 17.4098 108.795 17.3678C108.973 17.3258 109.138 17.2674 109.292 17.1928C109.446 17.1134 109.593 17.0178 109.733 16.9058C109.873 16.7938 110.011 16.6654 110.146 16.5208V15.1208ZM106.142 12.1598C106.539 11.7818 106.968 11.4994 107.43 11.3128C107.897 11.1261 108.408 11.0328 108.963 11.0328C109.369 11.0328 109.729 11.1004 110.041 11.2358C110.354 11.3664 110.618 11.5508 110.832 11.7888C111.047 12.0268 111.208 12.3114 111.315 12.6428C111.427 12.9741 111.483 13.3404 111.483 13.7418V18.2778H110.874C110.739 18.2778 110.636 18.2568 110.566 18.2148C110.496 18.1681 110.44 18.0841 110.398 17.9628L110.251 17.3398C110.069 17.5078 109.89 17.6571 109.712 17.7878C109.535 17.9138 109.348 18.0234 109.152 18.1168C108.961 18.2054 108.756 18.2731 108.536 18.3198C108.317 18.3664 108.074 18.3898 107.808 18.3898C107.528 18.3898 107.265 18.3524 107.017 18.2778C106.775 18.1984 106.562 18.0794 106.38 17.9208C106.198 17.7621 106.054 17.5638 105.946 17.3258C105.844 17.0878 105.792 16.8101 105.792 16.4928C105.792 16.2128 105.867 15.9444 106.016 15.6878C106.17 15.4264 106.418 15.1931 106.758 14.9878C107.104 14.7824 107.552 14.6144 108.102 14.4838C108.658 14.3531 109.339 14.2784 110.146 14.2598V13.7418C110.146 13.2051 110.032 12.8038 109.803 12.5378C109.575 12.2718 109.239 12.1388 108.795 12.1388C108.497 12.1388 108.245 12.1761 108.039 12.2508C107.839 12.3254 107.664 12.4094 107.514 12.5028C107.37 12.5914 107.241 12.6731 107.129 12.7478C107.022 12.8224 106.91 12.8598 106.793 12.8598C106.7 12.8598 106.618 12.8341 106.548 12.7828C106.483 12.7314 106.429 12.6708 106.387 12.6008L106.142 12.1598ZM117.504 12.3908C117.466 12.4514 117.427 12.4958 117.385 12.5238C117.343 12.5471 117.289 12.5588 117.224 12.5588C117.149 12.5588 117.065 12.5331 116.972 12.4818C116.883 12.4304 116.773 12.3744 116.643 12.3138C116.517 12.2531 116.367 12.1971 116.195 12.1458C116.022 12.0944 115.817 12.0688 115.579 12.0688C115.383 12.0688 115.203 12.0944 115.04 12.1458C114.881 12.1924 114.746 12.2601 114.634 12.3488C114.522 12.4328 114.435 12.5354 114.375 12.6568C114.314 12.7734 114.284 12.8994 114.284 13.0348C114.284 13.2121 114.335 13.3591 114.438 13.4758C114.545 13.5924 114.683 13.6928 114.851 13.7768C115.023 13.8608 115.217 13.9378 115.432 14.0078C115.651 14.0731 115.873 14.1431 116.097 14.2178C116.325 14.2924 116.547 14.3788 116.762 14.4768C116.981 14.5701 117.175 14.6891 117.343 14.8338C117.515 14.9738 117.653 15.1441 117.756 15.3448C117.863 15.5454 117.917 15.7904 117.917 16.0798C117.917 16.4111 117.856 16.7191 117.735 17.0038C117.618 17.2838 117.443 17.5264 117.21 17.7318C116.981 17.9371 116.696 18.0981 116.356 18.2148C116.015 18.3314 115.625 18.3898 115.187 18.3898C114.697 18.3898 114.244 18.3081 113.829 18.1448C113.413 17.9814 113.066 17.7738 112.786 17.5218L113.108 16.9968C113.145 16.9314 113.192 16.8824 113.248 16.8498C113.304 16.8124 113.378 16.7938 113.472 16.7938C113.56 16.7938 113.651 16.8264 113.745 16.8918C113.838 16.9571 113.95 17.0294 114.081 17.1088C114.211 17.1834 114.37 17.2534 114.557 17.3188C114.743 17.3794 114.977 17.4098 115.257 17.4098C115.49 17.4098 115.693 17.3818 115.866 17.3258C116.038 17.2651 116.181 17.1858 116.293 17.0878C116.409 16.9851 116.496 16.8684 116.552 16.7378C116.608 16.6071 116.636 16.4694 116.636 16.3248C116.636 16.1381 116.582 15.9841 116.475 15.8628C116.372 15.7368 116.234 15.6294 116.062 15.5408C115.894 15.4521 115.7 15.3751 115.481 15.3098C115.261 15.2444 115.037 15.1744 114.809 15.0998C114.58 15.0251 114.356 14.9388 114.137 14.8408C113.917 14.7428 113.721 14.6191 113.549 14.4698C113.381 14.3204 113.243 14.1384 113.136 13.9238C113.033 13.7091 112.982 13.4478 112.982 13.1398C112.982 12.8644 113.038 12.6008 113.15 12.3488C113.266 12.0968 113.432 11.8751 113.647 11.6838C113.866 11.4924 114.134 11.3408 114.452 11.2288C114.774 11.1121 115.14 11.0538 115.551 11.0538C116.022 11.0538 116.447 11.1284 116.825 11.2778C117.207 11.4271 117.534 11.6324 117.805 11.8938L117.504 12.3908ZM120.76 7.94578V13.9868H121.082C121.18 13.9868 121.261 13.9728 121.327 13.9448C121.392 13.9168 121.46 13.8608 121.53 13.7768L123.658 11.4318C123.723 11.3431 123.795 11.2778 123.875 11.2358C123.954 11.1891 124.054 11.1658 124.176 11.1658H125.422L122.909 13.9168C122.773 14.0894 122.629 14.2224 122.475 14.3158C122.563 14.3764 122.64 14.4464 122.706 14.5258C122.776 14.6051 122.843 14.6914 122.909 14.7848L125.583 18.2778H124.358C124.246 18.2778 124.148 18.2591 124.064 18.2218C123.984 18.1844 123.912 18.1168 123.847 18.0188L121.649 15.1628C121.579 15.0554 121.509 14.9878 121.439 14.9598C121.369 14.9271 121.264 14.9108 121.124 14.9108H120.76V18.2778H119.395V7.94578H120.76ZM130.793 12.3908C130.755 12.4514 130.716 12.4958 130.674 12.5238C130.632 12.5471 130.578 12.5588 130.513 12.5588C130.438 12.5588 130.354 12.5331 130.261 12.4818C130.172 12.4304 130.062 12.3744 129.932 12.3138C129.806 12.2531 129.656 12.1971 129.484 12.1458C129.311 12.0944 129.106 12.0688 128.868 12.0688C128.672 12.0688 128.492 12.0944 128.329 12.1458C128.17 12.1924 128.035 12.2601 127.923 12.3488C127.811 12.4328 127.724 12.5354 127.664 12.6568C127.603 12.7734 127.573 12.8994 127.573 13.0348C127.573 13.2121 127.624 13.3591 127.727 13.4758C127.834 13.5924 127.972 13.6928 128.14 13.7768C128.312 13.8608 128.506 13.9378 128.721 14.0078C128.94 14.0731 129.162 14.1431 129.386 14.2178C129.614 14.2924 129.836 14.3788 130.051 14.4768C130.27 14.5701 130.464 14.6891 130.632 14.8338C130.804 14.9738 130.942 15.1441 131.045 15.3448C131.152 15.5454 131.206 15.7904 131.206 16.0798C131.206 16.4111 131.145 16.7191 131.024 17.0038C130.907 17.2838 130.732 17.5264 130.499 17.7318C130.27 17.9371 129.985 18.0981 129.645 18.2148C129.304 18.3314 128.914 18.3898 128.476 18.3898C127.986 18.3898 127.533 18.3081 127.118 18.1448C126.702 17.9814 126.355 17.7738 126.075 17.5218L126.397 16.9968C126.434 16.9314 126.481 16.8824 126.537 16.8498C126.593 16.8124 126.667 16.7938 126.761 16.7938C126.849 16.7938 126.94 16.8264 127.034 16.8918C127.127 16.9571 127.239 17.0294 127.37 17.1088C127.5 17.1834 127.659 17.2534 127.846 17.3188C128.032 17.3794 128.266 17.4098 128.546 17.4098C128.779 17.4098 128.982 17.3818 129.155 17.3258C129.327 17.2651 129.47 17.1858 129.582 17.0878C129.698 16.9851 129.785 16.8684 129.841 16.7378C129.897 16.6071 129.925 16.4694 129.925 16.3248C129.925 16.1381 129.871 15.9841 129.764 15.8628C129.661 15.7368 129.523 15.6294 129.351 15.5408C129.183 15.4521 128.989 15.3751 128.77 15.3098C128.55 15.2444 128.326 15.1744 128.098 15.0998C127.869 15.0251 127.645 14.9388 127.426 14.8408C127.206 14.7428 127.01 14.6191 126.838 14.4698C126.67 14.3204 126.532 14.1384 126.425 13.9238C126.322 13.7091 126.271 13.4478 126.271 13.1398C126.271 12.8644 126.327 12.6008 126.439 12.3488C126.555 12.0968 126.721 11.8751 126.936 11.6838C127.155 11.4924 127.423 11.3408 127.741 11.2288C128.063 11.1121 128.429 11.0538 128.84 11.0538C129.311 11.0538 129.736 11.1284 130.114 11.2778C130.496 11.4271 130.823 11.6324 131.094 11.8938L130.793 12.3908Z" fill="#6A5ACD"/>
</svg>
