<svg width="139" height="40" viewBox="0 0 139 40" fill="none" xmlns="http://www.w3.org/2000/svg">
<rect width="139" height="40" rx="10" fill="#6A5ACD"/>
<g clip-path="url(#clip0_128_23412)">
<path d="M35 11H21C19.9 11 19 11.9 19 13V27C19 28.1 19.9 29 21 29H35C36.1 29 37 28.1 37 27V13C37 11.9 36.1 11 35 11ZM21 27V13H27V27H21ZM35 27H29V20H35V27ZM35 18H29V13H35V18Z" fill="#F8F8FF"/>
</g>
<path d="M66.01 20.474C66.01 21.2253 65.8887 21.909 65.646 22.525C65.408 23.141 65.0697 23.6707 64.631 24.114C64.1923 24.5527 63.6673 24.8933 63.056 25.136C62.4447 25.3787 61.7657 25.5 61.019 25.5H57.239V15.448H61.019C61.7657 15.448 62.4447 15.5693 63.056 15.812C63.6673 16.0547 64.1923 16.3977 64.631 16.841C65.0697 17.2797 65.408 17.8093 65.646 18.43C65.8887 19.046 66.01 19.7273 66.01 20.474ZM64.484 20.474C64.484 19.8767 64.4023 19.3423 64.239 18.871C64.0757 18.395 63.8423 17.9937 63.539 17.667C63.2403 17.3357 62.8763 17.0837 62.447 16.911C62.0223 16.7383 61.5463 16.652 61.019 16.652H58.737V24.296H61.019C61.5463 24.296 62.0223 24.2097 62.447 24.037C62.8763 23.8643 63.2403 23.6147 63.539 23.288C63.8423 22.9567 64.0757 22.5553 64.239 22.084C64.4023 21.6127 64.484 21.076 64.484 20.474ZM71.2537 22.343C70.6983 22.3617 70.227 22.406 69.8397 22.476C69.4523 22.5413 69.1373 22.63 68.8947 22.742C68.652 22.854 68.477 22.987 68.3697 23.141C68.2623 23.2903 68.2087 23.4583 68.2087 23.645C68.2087 23.8223 68.2367 23.9763 68.2927 24.107C68.3533 24.233 68.4327 24.338 68.5307 24.422C68.6333 24.5013 68.7523 24.5597 68.8877 24.597C69.023 24.6343 69.17 24.653 69.3287 24.653C69.5387 24.653 69.73 24.632 69.9027 24.59C70.08 24.548 70.2457 24.4897 70.3997 24.415C70.5537 24.3357 70.7007 24.24 70.8407 24.128C70.9807 24.016 71.1183 23.8877 71.2537 23.743V22.343ZM67.2497 19.382C67.6463 19.004 68.0757 18.7217 68.5377 18.535C69.0043 18.3483 69.5153 18.255 70.0707 18.255C70.4767 18.255 70.836 18.3227 71.1487 18.458C71.4613 18.5887 71.725 18.773 71.9397 19.011C72.1543 19.249 72.3153 19.5337 72.4227 19.865C72.5347 20.1963 72.5907 20.5627 72.5907 20.964V25.5H71.9817C71.8463 25.5 71.7437 25.479 71.6737 25.437C71.6037 25.3903 71.5477 25.3063 71.5057 25.185L71.3587 24.562C71.1767 24.73 70.997 24.8793 70.8197 25.01C70.6423 25.136 70.4557 25.2457 70.2597 25.339C70.0683 25.4277 69.863 25.4953 69.6437 25.542C69.4243 25.5887 69.1817 25.612 68.9157 25.612C68.6357 25.612 68.372 25.5747 68.1247 25.5C67.882 25.4207 67.6697 25.3017 67.4877 25.143C67.3057 24.9843 67.161 24.786 67.0537 24.548C66.951 24.31 66.8997 24.0323 66.8997 23.715C66.8997 23.435 66.9743 23.1667 67.1237 22.91C67.2777 22.6487 67.525 22.4153 67.8657 22.21C68.211 22.0047 68.659 21.8367 69.2097 21.706C69.765 21.5753 70.4463 21.5007 71.2537 21.482V20.964C71.2537 20.4273 71.1393 20.026 70.9107 19.76C70.682 19.494 70.346 19.361 69.9027 19.361C69.604 19.361 69.352 19.3983 69.1467 19.473C68.946 19.5477 68.771 19.6317 68.6217 19.725C68.477 19.8137 68.3487 19.8953 68.2367 19.97C68.1293 20.0447 68.0173 20.082 67.9007 20.082C67.8073 20.082 67.7257 20.0563 67.6557 20.005C67.5903 19.9537 67.5367 19.893 67.4947 19.823L67.2497 19.382ZM78.611 19.613C78.5737 19.6737 78.534 19.718 78.492 19.746C78.45 19.7693 78.3963 19.781 78.331 19.781C78.2563 19.781 78.1723 19.7553 78.079 19.704C77.9903 19.6527 77.8807 19.5967 77.75 19.536C77.624 19.4753 77.4747 19.4193 77.302 19.368C77.1293 19.3167 76.924 19.291 76.686 19.291C76.49 19.291 76.3103 19.3167 76.147 19.368C75.9883 19.4147 75.853 19.4823 75.741 19.571C75.629 19.655 75.5427 19.7577 75.482 19.879C75.4213 19.9957 75.391 20.1217 75.391 20.257C75.391 20.4343 75.4423 20.5813 75.545 20.698C75.6523 20.8147 75.79 20.915 75.958 20.999C76.1307 21.083 76.3243 21.16 76.539 21.23C76.7583 21.2953 76.98 21.3653 77.204 21.44C77.4327 21.5147 77.6543 21.601 77.869 21.699C78.0883 21.7923 78.282 21.9113 78.45 22.056C78.6227 22.196 78.7603 22.3663 78.863 22.567C78.9703 22.7677 79.024 23.0127 79.024 23.302C79.024 23.6333 78.9633 23.9413 78.842 24.226C78.7253 24.506 78.5503 24.7487 78.317 24.954C78.0883 25.1593 77.8037 25.3203 77.463 25.437C77.1223 25.5537 76.7327 25.612 76.294 25.612C75.804 25.612 75.3513 25.5303 74.936 25.367C74.5207 25.2037 74.173 24.996 73.893 24.744L74.215 24.219C74.2523 24.1537 74.299 24.1047 74.355 24.072C74.411 24.0347 74.4857 24.016 74.579 24.016C74.6677 24.016 74.7587 24.0487 74.852 24.114C74.9453 24.1793 75.0573 24.2517 75.188 24.331C75.3187 24.4057 75.4773 24.4757 75.664 24.541C75.8507 24.6017 76.084 24.632 76.364 24.632C76.5973 24.632 76.8003 24.604 76.973 24.548C77.1457 24.4873 77.288 24.408 77.4 24.31C77.5167 24.2073 77.603 24.0907 77.659 23.96C77.715 23.8293 77.743 23.6917 77.743 23.547C77.743 23.3603 77.6893 23.2063 77.582 23.085C77.4793 22.959 77.3417 22.8517 77.169 22.763C77.001 22.6743 76.8073 22.5973 76.588 22.532C76.3687 22.4667 76.1447 22.3967 75.916 22.322C75.6873 22.2473 75.4633 22.161 75.244 22.063C75.0247 21.965 74.8287 21.8413 74.656 21.692C74.488 21.5427 74.3503 21.3607 74.243 21.146C74.1403 20.9313 74.089 20.67 74.089 20.362C74.089 20.0867 74.145 19.823 74.257 19.571C74.3737 19.319 74.5393 19.0973 74.754 18.906C74.9733 18.7147 75.2417 18.563 75.559 18.451C75.881 18.3343 76.2473 18.276 76.658 18.276C77.1293 18.276 77.554 18.3507 77.932 18.5C78.3147 18.6493 78.6413 18.8547 78.912 19.116L78.611 19.613ZM81.867 19.291C82.1656 18.9877 82.4946 18.7427 82.854 18.556C83.218 18.3693 83.6356 18.276 84.107 18.276C84.499 18.276 84.842 18.3413 85.136 18.472C85.4346 18.6027 85.6843 18.787 85.885 19.025C86.0856 19.2583 86.2373 19.5407 86.34 19.872C86.4426 20.2033 86.494 20.5697 86.494 20.971V25.5H85.122V20.971C85.122 20.4623 85.0053 20.068 84.772 19.788C84.5386 19.5033 84.1816 19.361 83.701 19.361C83.351 19.361 83.022 19.445 82.714 19.613C82.4106 19.7763 82.1283 20.0003 81.867 20.285V25.5H80.502V15.168H81.867V19.291ZM89.701 23.75C89.925 24.044 90.1676 24.2493 90.429 24.366C90.6903 24.4827 90.975 24.541 91.283 24.541C91.9176 24.541 92.4053 24.3147 92.746 23.862C93.0913 23.4093 93.264 22.7257 93.264 21.811C93.264 20.9663 93.1123 20.348 92.809 19.956C92.5056 19.5593 92.0763 19.361 91.521 19.361C91.129 19.361 90.7883 19.4497 90.499 19.627C90.2143 19.8043 89.9483 20.0563 89.701 20.383V23.75ZM89.701 19.368C89.995 19.0413 90.3286 18.7777 90.702 18.577C91.0753 18.3763 91.5 18.276 91.976 18.276C92.3913 18.276 92.7646 18.3577 93.096 18.521C93.432 18.6797 93.7166 18.9107 93.95 19.214C94.1833 19.5127 94.363 19.8767 94.489 20.306C94.615 20.7353 94.678 21.2207 94.678 21.762C94.678 22.336 94.6056 22.8587 94.461 23.33C94.321 23.8013 94.118 24.205 93.852 24.541C93.5906 24.877 93.271 25.1383 92.893 25.325C92.515 25.507 92.0903 25.598 91.619 25.598C91.3903 25.598 91.1803 25.5747 90.989 25.528C90.7976 25.486 90.6203 25.423 90.457 25.339C90.2983 25.255 90.1513 25.1523 90.016 25.031C89.8806 24.9097 89.7523 24.772 89.631 24.618L89.568 25.213C89.5306 25.4043 89.414 25.5 89.218 25.5H88.336V15.168H89.701V19.368ZM99.2283 18.276C99.7509 18.276 100.222 18.3623 100.642 18.535C101.067 18.703 101.426 18.948 101.72 19.27C102.019 19.5873 102.248 19.9723 102.406 20.425C102.565 20.873 102.644 21.377 102.644 21.937C102.644 22.497 102.565 23.0033 102.406 23.456C102.248 23.9087 102.019 24.2937 101.72 24.611C101.426 24.9283 101.067 25.1733 100.642 25.346C100.222 25.514 99.7509 25.598 99.2283 25.598C98.7009 25.598 98.2249 25.514 97.8003 25.346C97.3803 25.1733 97.0209 24.9283 96.7223 24.611C96.4236 24.2937 96.1926 23.9087 96.0293 23.456C95.8706 23.0033 95.7913 22.497 95.7913 21.937C95.7913 21.377 95.8706 20.873 96.0293 20.425C96.1926 19.9723 96.4236 19.5873 96.7223 19.27C97.0209 18.948 97.3803 18.703 97.8003 18.535C98.2249 18.3623 98.7009 18.276 99.2283 18.276ZM99.2283 24.534C99.9003 24.534 100.402 24.3077 100.733 23.855C101.065 23.4023 101.23 22.7653 101.23 21.944C101.23 21.1227 101.065 20.4857 100.733 20.033C100.402 19.5757 99.9003 19.347 99.2283 19.347C98.5469 19.347 98.0383 19.5757 97.7023 20.033C97.3709 20.4857 97.2053 21.1227 97.2053 21.944C97.2053 22.7653 97.3709 23.4023 97.7023 23.855C98.0383 24.3077 98.5469 24.534 99.2283 24.534ZM107.99 22.343C107.435 22.3617 106.963 22.406 106.576 22.476C106.189 22.5413 105.874 22.63 105.631 22.742C105.388 22.854 105.213 22.987 105.106 23.141C104.999 23.2903 104.945 23.4583 104.945 23.645C104.945 23.8223 104.973 23.9763 105.029 24.107C105.09 24.233 105.169 24.338 105.267 24.422C105.37 24.5013 105.489 24.5597 105.624 24.597C105.759 24.6343 105.906 24.653 106.065 24.653C106.275 24.653 106.466 24.632 106.639 24.59C106.816 24.548 106.982 24.4897 107.136 24.415C107.29 24.3357 107.437 24.24 107.577 24.128C107.717 24.016 107.855 23.8877 107.99 23.743V22.343ZM103.986 19.382C104.383 19.004 104.812 18.7217 105.274 18.535C105.741 18.3483 106.252 18.255 106.807 18.255C107.213 18.255 107.572 18.3227 107.885 18.458C108.198 18.5887 108.461 18.773 108.676 19.011C108.891 19.249 109.052 19.5337 109.159 19.865C109.271 20.1963 109.327 20.5627 109.327 20.964V25.5H108.718C108.583 25.5 108.48 25.479 108.41 25.437C108.34 25.3903 108.284 25.3063 108.242 25.185L108.095 24.562C107.913 24.73 107.733 24.8793 107.556 25.01C107.379 25.136 107.192 25.2457 106.996 25.339C106.805 25.4277 106.599 25.4953 106.38 25.542C106.161 25.5887 105.918 25.612 105.652 25.612C105.372 25.612 105.108 25.5747 104.861 25.5C104.618 25.4207 104.406 25.3017 104.224 25.143C104.042 24.9843 103.897 24.786 103.79 24.548C103.687 24.31 103.636 24.0323 103.636 23.715C103.636 23.435 103.711 23.1667 103.86 22.91C104.014 22.6487 104.261 22.4153 104.602 22.21C104.947 22.0047 105.395 21.8367 105.946 21.706C106.501 21.5753 107.183 21.5007 107.99 21.482V20.964C107.99 20.4273 107.876 20.026 107.647 19.76C107.418 19.494 107.082 19.361 106.639 19.361C106.34 19.361 106.088 19.3983 105.883 19.473C105.682 19.5477 105.507 19.6317 105.358 19.725C105.213 19.8137 105.085 19.8953 104.973 19.97C104.866 20.0447 104.754 20.082 104.637 20.082C104.544 20.082 104.462 20.0563 104.392 20.005C104.327 19.9537 104.273 19.893 104.231 19.823L103.986 19.382ZM112.442 19.753C112.671 19.2863 112.946 18.92 113.268 18.654C113.59 18.388 113.978 18.255 114.43 18.255C114.584 18.255 114.729 18.2737 114.864 18.311C115.004 18.3437 115.126 18.395 115.228 18.465L115.137 19.494C115.105 19.62 115.028 19.683 114.906 19.683C114.841 19.683 114.743 19.6713 114.612 19.648C114.482 19.62 114.342 19.606 114.192 19.606C113.973 19.606 113.779 19.6387 113.611 19.704C113.443 19.7647 113.292 19.858 113.156 19.984C113.026 20.1053 112.909 20.257 112.806 20.439C112.704 20.6163 112.608 20.8193 112.519 21.048V25.5H111.154V18.388H111.938C112.088 18.388 112.188 18.416 112.239 18.472C112.295 18.5233 112.335 18.6167 112.358 18.752L112.442 19.753ZM120.62 20.11C120.396 19.816 120.154 19.6107 119.892 19.494C119.636 19.3773 119.346 19.319 119.024 19.319C118.399 19.319 117.914 19.5453 117.568 19.998C117.228 20.446 117.057 21.1017 117.057 21.965C117.057 22.4177 117.095 22.805 117.169 23.127C117.249 23.4443 117.361 23.7057 117.505 23.911C117.655 24.1117 117.837 24.261 118.051 24.359C118.266 24.4523 118.509 24.499 118.779 24.499C119.176 24.499 119.519 24.4103 119.808 24.233C120.098 24.0557 120.368 23.806 120.62 23.484V20.11ZM121.992 15.168V25.5H121.166C120.975 25.5 120.856 25.409 120.809 25.227L120.69 24.408C120.387 24.7673 120.042 25.0567 119.654 25.276C119.272 25.4907 118.828 25.598 118.324 25.598C117.918 25.598 117.55 25.5187 117.218 25.36C116.892 25.2013 116.612 24.9703 116.378 24.667C116.145 24.359 115.965 23.9787 115.839 23.526C115.713 23.0733 115.65 22.553 115.65 21.965C115.65 21.4377 115.72 20.9477 115.86 20.495C116 20.0423 116.203 19.6503 116.469 19.319C116.735 18.9877 117.057 18.7287 117.435 18.542C117.813 18.3507 118.24 18.255 118.716 18.255C119.146 18.255 119.51 18.325 119.808 18.465C120.112 18.605 120.382 18.8033 120.62 19.06V15.168H121.992Z" fill="#F8F8FF"/>
<defs>
<clipPath id="clip0_128_23412">
<rect width="24" height="24" fill="white" transform="translate(16 8)"/>
</clipPath>
</defs>
</svg>
