<svg width="70" height="25" viewBox="0 0 70 25" fill="none" xmlns="http://www.w3.org/2000/svg">
<path d="M14.5456 14.8789C13.1397 16.2848 10.8603 16.2848 9.45442 14.8789M14.5456 14.8789C15.9515 13.473 15.9515 11.1936 14.5456 9.78775M14.5456 14.8789L18.364 18.6973M9.45442 14.8789C8.04853 13.473 8.04853 11.1936 9.45442 9.78775M9.45442 14.8789L5.63604 18.6973M9.45442 9.78775C10.8603 8.38186 13.1397 8.38186 14.5456 9.78775M9.45442 9.78775L5.63604 5.96937M14.5456 9.78775L18.364 5.96937M18.7882 19.1216C15.0392 22.8706 8.96081 22.8706 5.21178 19.1216C1.46274 15.3725 1.46274 9.29414 5.21178 5.54511C8.96081 1.79608 15.0392 1.79608 18.7882 5.54511C22.5373 9.29414 22.5373 15.3725 18.7882 19.1216Z" stroke="#6A5ACD" stroke-width="1.5" stroke-linecap="round" stroke-linejoin="round"/>
<path d="M49.471 7.78134V17.8333H47.98V13.3043H42.737V17.8333H41.239V7.78134H42.737V12.2193H47.98V7.78134H49.471ZM56.17 13.4863C56.17 13.2157 56.1303 12.966 56.051 12.7373C55.9763 12.5087 55.8643 12.3103 55.715 12.1423C55.5657 11.9743 55.3837 11.8437 55.169 11.7503C54.9543 11.657 54.707 11.6103 54.427 11.6103C53.853 11.6103 53.4003 11.776 53.069 12.1073C52.7423 12.4387 52.5347 12.8983 52.446 13.4863H56.17ZM57.297 16.8183C57.129 17.0143 56.9353 17.1847 56.716 17.3293C56.4967 17.4693 56.2633 17.5837 56.016 17.6723C55.7687 17.761 55.512 17.8263 55.246 17.8683C54.9847 17.9103 54.7257 17.9313 54.469 17.9313C53.979 17.9313 53.524 17.8497 53.104 17.6863C52.6887 17.5183 52.327 17.2757 52.019 16.9583C51.7157 16.6363 51.4777 16.2397 51.305 15.7683C51.137 15.2923 51.053 14.7463 51.053 14.1303C51.053 13.6357 51.13 13.176 51.284 12.7513C51.438 12.322 51.6573 11.9487 51.942 11.6313C52.2313 11.314 52.5837 11.0643 52.999 10.8823C53.4143 10.7003 53.881 10.6093 54.399 10.6093C54.833 10.6093 55.232 10.6817 55.596 10.8263C55.9647 10.9663 56.282 11.1717 56.548 11.4423C56.814 11.713 57.0217 12.0467 57.171 12.4433C57.325 12.84 57.402 13.2927 57.402 13.8013C57.402 14.0113 57.3787 14.1537 57.332 14.2283C57.2853 14.2983 57.199 14.3333 57.073 14.3333H52.411C52.425 14.758 52.4857 15.129 52.593 15.4463C52.7003 15.759 52.8473 16.0203 53.034 16.2303C53.2253 16.4403 53.4517 16.5967 53.713 16.6993C53.9743 16.802 54.266 16.8533 54.588 16.8533C54.8913 16.8533 55.1527 16.8183 55.372 16.7483C55.596 16.6783 55.7873 16.6037 55.946 16.5243C56.1093 16.4403 56.2447 16.3633 56.352 16.2933C56.464 16.2233 56.562 16.1883 56.646 16.1883C56.758 16.1883 56.8443 16.2303 56.905 16.3143L57.297 16.8183ZM60.2692 7.50134V17.8333H58.8972V7.50134H60.2692ZM63.5838 16.0833C63.8078 16.3773 64.0481 16.5827 64.3048 16.6993C64.5661 16.816 64.8578 16.8743 65.1798 16.8743C65.8051 16.8743 66.2881 16.6503 66.6288 16.2023C66.9741 15.7497 67.1468 15.0917 67.1468 14.2283C67.1468 13.7757 67.1071 13.3907 67.0278 13.0733C66.9531 12.7513 66.8411 12.49 66.6918 12.2893C66.5471 12.084 66.3674 11.9347 66.1528 11.8413C65.9381 11.7433 65.6954 11.6943 65.4248 11.6943C65.0281 11.6943 64.6828 11.783 64.3888 11.9603C64.0994 12.1377 63.8311 12.3897 63.5838 12.7163V16.0833ZM63.5138 11.7853C63.6631 11.608 63.8218 11.447 63.9898 11.3023C64.1624 11.153 64.3468 11.027 64.5428 10.9243C64.7388 10.817 64.9464 10.7353 65.1658 10.6793C65.3898 10.6187 65.6278 10.5883 65.8798 10.5883C66.2858 10.5883 66.6521 10.6677 66.9788 10.8263C67.3101 10.985 67.5924 11.2183 67.8258 11.5263C68.0591 11.8343 68.2388 12.2147 68.3648 12.6673C68.4954 13.12 68.5608 13.6403 68.5608 14.2283C68.5608 14.7557 68.4884 15.2457 68.3438 15.6983C68.2038 16.1463 68.0008 16.536 67.7348 16.8673C67.4734 17.1987 67.1514 17.46 66.7688 17.6513C66.3908 17.838 65.9638 17.9313 65.4878 17.9313C65.0631 17.9313 64.6991 17.8613 64.3958 17.7213C64.0924 17.5813 63.8218 17.3853 63.5838 17.1333V20.2203H62.2188V10.7213H63.0378C63.2291 10.7213 63.3481 10.8123 63.3948 10.9943L63.5138 11.7853Z" fill="#6A5ACD"/>
</svg>
